<svg id="svg" version="1.1" width="400" height="225" viewBox="0 0 400 225" xmlns="http://www.w3.org/2000/svg" xmlns:xlink="http://www.w3.org/1999/xlink" ><g id="svgg"><path id="path0" d="M137.556 42.722 C 129.919 43.715,123.604 48.869,121.107 56.146 C 120.089 59.111,120.003 60.555,120.001 74.531 L 120.000 87.500 200.011 87.500 L 280.022 87.500 279.941 73.594 C 279.855 58.770,279.866 58.931,278.788 55.829 C 276.778 50.043,271.811 45.254,266.042 43.540 C 265.182 43.285,264.292 42.970,264.063 42.840 C 263.769 42.674,259.999 42.586,251.270 42.543 L 238.895 42.481 239.022 44.122 C 239.209 46.550,240.307 49.276,241.738 50.864 C 242.203 51.380,242.321 51.408,243.600 51.305 C 249.679 50.817,252.926 59.226,248.520 64.047 C 245.345 67.521,240.441 66.529,238.442 62.009 C 238.173 61.402,237.721 60.753,237.437 60.567 C 232.911 57.602,229.609 51.193,229.228 44.635 L 229.104 42.500 219.000 42.500 L 208.897 42.500 209.023 44.115 C 209.214 46.554,210.300 49.250,211.742 50.864 C 212.204 51.380,212.320 51.408,213.600 51.305 C 219.679 50.817,222.926 59.226,218.520 64.047 C 215.359 67.505,210.658 66.622,208.534 62.171 C 208.196 61.462,207.694 60.736,207.420 60.556 C 202.912 57.602,199.609 51.182,199.228 44.635 L 199.104 42.500 189.000 42.500 L 178.897 42.500 179.023 44.115 C 179.210 46.505,179.985 48.563,181.411 50.454 L 182.146 51.429 183.552 51.311 C 189.661 50.799,192.941 59.209,188.520 64.047 C 185.350 67.515,180.438 66.522,178.442 62.009 C 178.173 61.402,177.721 60.753,177.437 60.567 C 172.902 57.596,169.610 51.206,169.228 44.635 L 169.104 42.500 159.000 42.500 L 148.897 42.500 149.022 44.132 C 149.209 46.550,150.309 49.278,151.738 50.864 C 152.203 51.380,152.321 51.408,153.600 51.305 C 159.807 50.807,162.965 59.577,158.308 64.377 C 155.276 67.501,150.348 66.318,148.442 62.009 C 148.173 61.402,147.721 60.753,147.437 60.567 C 142.911 57.602,139.609 51.193,139.228 44.635 C 139.160 43.461,139.048 42.512,138.979 42.526 C 138.910 42.541,138.270 42.629,137.556 42.722 M133.608 70.957 C 134.879 71.390,134.933 71.518,134.362 72.737 C 134.005 73.499,133.796 73.730,133.555 73.631 C 130.775 72.486,128.125 73.815,128.125 76.354 C 128.125 78.893,130.775 80.223,133.555 79.078 C 133.919 78.928,134.950 80.826,134.713 81.209 C 133.937 82.464,129.748 82.319,127.775 80.968 C 122.119 77.097,127.008 68.708,133.608 70.957 M144.375 76.055 C 145.578 79.039,146.595 81.574,146.635 81.688 C 146.680 81.816,146.163 81.871,145.283 81.833 L 143.858 81.771 143.463 80.670 L 143.068 79.569 140.979 79.628 L 138.889 79.688 138.542 80.729 L 138.195 81.771 136.806 81.832 C 136.042 81.866,135.417 81.822,135.417 81.734 C 135.417 81.646,136.414 79.111,137.633 76.100 L 139.848 70.625 141.018 70.628 L 142.188 70.630 144.375 76.055 M194.501 76.142 C 197.064 82.547,196.965 81.875,195.340 81.875 L 194.014 81.875 193.599 80.781 L 193.184 79.688 191.117 79.629 L 189.049 79.570 188.657 80.722 L 188.266 81.875 186.945 81.875 C 185.287 81.875,185.231 82.329,187.625 76.350 C 190.177 69.975,189.791 70.592,191.180 70.667 L 192.334 70.729 194.501 76.142 M150.208 75.201 L 150.208 79.568 152.135 79.628 L 154.063 79.688 154.125 80.781 L 154.188 81.875 150.948 81.875 L 147.708 81.875 147.708 76.354 L 147.708 70.833 148.958 70.833 L 150.208 70.833 150.208 75.201 M162.292 71.979 L 162.292 73.125 160.417 73.125 L 158.542 73.125 158.542 74.167 L 158.542 75.208 160.313 75.208 L 162.083 75.208 162.083 76.354 L 162.083 77.500 160.313 77.500 L 158.542 77.500 158.542 78.542 L 158.542 79.583 160.417 79.583 L 162.292 79.583 162.292 80.729 L 162.292 81.875 159.063 81.875 L 155.833 81.875 155.833 76.354 L 155.833 70.833 159.063 70.833 L 162.292 70.833 162.292 71.979 M169.063 74.111 L 171.146 77.389 171.203 74.111 L 171.261 70.833 172.609 70.833 L 173.958 70.833 173.958 76.364 L 173.958 81.894 172.564 81.832 L 171.169 81.771 169.074 78.468 L 166.979 75.165 166.922 78.520 L 166.865 81.875 165.620 81.875 L 164.375 81.875 164.375 76.354 L 164.375 70.833 165.677 70.833 L 166.980 70.833 169.063 74.111 M181.243 71.143 C 185.983 72.816,186.012 79.895,181.286 81.583 C 180.843 81.742,179.578 81.861,178.281 81.866 L 176.042 81.875 176.042 76.354 L 176.042 70.833 178.203 70.833 C 179.584 70.833,180.682 70.945,181.243 71.143 M203.878 71.367 C 205.824 72.820,205.880 75.877,203.981 76.999 C 203.148 77.491,203.061 77.278,205.104 79.755 C 206.078 80.936,206.875 81.943,206.875 81.993 C 206.875 82.043,206.148 82.079,205.260 82.074 L 203.646 82.064 202.083 79.984 L 200.521 77.904 200.461 80.004 L 200.402 82.103 199.107 82.041 L 197.813 81.979 197.757 76.386 L 197.701 70.792 200.502 70.865 C 202.938 70.928,203.378 70.994,203.878 71.367 M200.417 74.398 L 200.417 75.880 201.198 75.742 C 203.181 75.392,203.052 72.917,201.051 72.917 L 200.417 72.917 200.417 74.398 M178.750 76.354 L 178.750 79.638 179.526 79.512 C 182.902 78.964,182.902 73.744,179.526 73.196 L 178.750 73.070 178.750 76.354 M140.390 75.846 L 139.842 77.292 140.963 77.292 C 141.579 77.292,142.083 77.253,142.083 77.206 C 142.083 77.037,141.178 74.685,141.059 74.544 C 140.992 74.466,140.691 75.052,140.390 75.846 M190.556 75.736 C 189.911 77.407,189.879 77.332,191.205 77.251 L 192.247 77.188 191.676 75.751 L 191.106 74.314 190.556 75.736 " stroke="none" fill="#546ac7" fill-rule="evenodd"></path><path id="path1" d="M0.000 112.500 L 0.000 225.000 200.000 225.000 L 400.000 225.000 400.000 112.500 L 400.000 0.000 200.000 0.000 L 0.000 0.000 0.000 112.500 M159.443 23.632 C 163.777 24.462,168.261 27.640,170.723 31.630 C 171.683 33.185,171.457 33.209,172.606 31.433 C 179.548 20.703,193.723 20.746,200.621 31.518 C 201.119 32.296,201.590 32.858,201.668 32.768 C 201.746 32.678,202.308 31.874,202.916 30.981 C 209.952 20.655,223.835 20.920,230.616 31.510 C 231.700 33.204,231.455 33.213,232.606 31.433 C 242.050 16.835,262.476 23.359,264.073 41.483 L 264.194 42.862 265.558 43.232 C 271.899 44.948,277.200 50.260,279.322 57.023 L 279.896 58.854 279.896 122.188 L 279.896 185.521 279.426 187.292 C 277.511 194.514,272.095 199.925,264.792 201.914 L 263.021 202.396 200.000 202.396 C 140.500 202.396,136.899 202.375,135.549 202.029 C 127.983 200.086,122.414 194.517,120.471 186.951 C 120.125 185.601,120.104 181.986,120.104 122.188 L 120.104 58.854 120.688 56.992 C 123.109 49.261,129.399 43.799,137.172 42.675 L 138.918 42.422 139.063 41.055 C 140.264 29.761,149.630 21.755,159.443 23.632 M154.215 33.661 C 152.074 34.728,150.197 37.427,149.479 40.470 C 148.947 42.731,148.142 42.500,156.563 42.500 L 163.958 42.500 163.958 41.885 C 163.958 36.198,158.452 31.550,154.215 33.661 M184.231 33.653 C 182.070 34.730,180.341 37.143,179.570 40.157 C 178.899 42.779,178.063 42.500,186.589 42.500 L 194.012 42.500 193.871 41.254 C 193.215 35.450,188.339 31.606,184.231 33.653 M214.951 33.332 C 212.307 34.129,209.822 37.714,209.282 41.510 L 209.141 42.500 216.577 42.500 L 224.012 42.500 223.871 41.254 C 223.263 35.879,219.017 32.108,214.951 33.332 M244.215 33.661 C 242.074 34.728,240.197 37.427,239.479 40.470 C 238.946 42.731,238.138 42.500,246.589 42.500 L 254.012 42.500 253.871 41.254 C 253.213 35.437,248.340 31.605,244.215 33.661 M129.751 70.917 C 123.550 72.586,124.237 81.042,130.648 81.981 C 131.635 82.126,133.974 81.669,134.505 81.228 C 134.952 80.857,133.994 79.101,133.442 79.280 C 130.749 80.153,128.366 79.048,128.019 76.764 C 127.639 74.266,130.455 72.484,133.339 73.397 C 133.982 73.601,135.018 71.906,134.509 71.483 C 133.681 70.796,131.266 70.509,129.751 70.917 M137.758 76.085 C 135.239 82.306,135.343 81.667,136.854 81.667 L 138.083 81.667 138.460 80.618 L 138.837 79.570 141.007 79.629 L 143.176 79.688 143.541 80.625 L 143.906 81.563 145.182 81.625 C 145.884 81.659,146.451 81.612,146.443 81.520 C 146.434 81.429,145.470 79.010,144.300 76.146 L 142.174 70.938 141.033 70.877 L 139.891 70.816 137.758 76.085 M147.708 76.354 L 147.708 81.875 150.833 81.875 L 153.958 81.875 153.958 80.833 L 153.958 79.792 152.083 79.792 L 150.208 79.792 150.208 75.313 L 150.208 70.833 148.958 70.833 L 147.708 70.833 147.708 76.354 M156.042 76.354 L 156.042 81.875 159.063 81.875 L 162.083 81.875 162.083 80.841 L 162.083 79.808 160.260 79.748 L 158.438 79.688 158.438 78.542 L 158.438 77.396 160.260 77.336 L 162.083 77.275 162.083 76.242 L 162.083 75.208 160.197 75.208 L 158.312 75.208 158.375 74.115 L 158.438 73.021 160.260 72.961 L 162.083 72.900 162.083 71.867 L 162.083 70.833 159.063 70.833 L 156.042 70.833 156.042 76.354 M164.375 76.354 L 164.375 81.875 165.620 81.875 L 166.865 81.875 166.922 78.440 L 166.979 75.005 169.167 78.437 L 171.354 81.869 172.552 81.872 L 173.750 81.875 173.750 76.354 L 173.750 70.833 172.604 70.833 L 171.458 70.833 171.458 74.167 C 171.458 76.000,171.375 77.500,171.273 77.500 C 171.171 77.500,170.132 76.000,168.965 74.167 L 166.842 70.833 165.608 70.833 L 164.375 70.833 164.375 76.354 M176.250 76.354 L 176.250 81.929 178.501 81.836 C 181.921 81.695,183.743 80.540,184.484 78.044 C 185.683 74.007,183.239 71.086,178.490 70.878 L 176.250 70.780 176.250 76.354 M189.928 70.990 C 189.848 71.119,187.565 76.783,186.019 80.687 L 185.623 81.687 186.921 81.625 L 188.219 81.563 188.564 80.625 L 188.909 79.688 191.102 79.629 L 193.295 79.570 193.644 80.618 L 193.992 81.667 195.225 81.667 C 196.741 81.667,196.841 82.307,194.354 76.094 L 192.248 70.833 191.136 70.833 C 190.525 70.833,189.981 70.904,189.928 70.990 M197.917 76.458 L 197.917 81.875 199.063 81.875 L 200.208 81.875 200.208 79.792 C 200.208 77.239,200.172 77.239,202.085 79.789 L 203.646 81.869 205.189 81.872 C 206.637 81.875,206.712 81.853,206.422 81.510 C 204.576 79.337,203.084 77.475,203.149 77.426 C 203.193 77.392,203.535 77.154,203.909 76.895 C 204.821 76.266,205.208 75.449,205.208 74.157 C 205.208 71.766,204.097 71.042,200.425 71.042 L 197.917 71.042 197.917 76.458 M202.327 73.261 C 203.381 74.215,202.543 75.833,200.995 75.833 L 200.208 75.833 200.208 74.375 L 200.208 72.917 201.077 72.917 C 201.594 72.917,202.101 73.057,202.327 73.261 M180.705 73.527 C 183.278 75.121,182.237 79.583,179.291 79.583 L 178.542 79.583 178.542 76.354 L 178.542 73.125 179.298 73.125 C 179.714 73.125,180.347 73.306,180.705 73.527 M141.756 75.910 C 142.050 76.697,142.292 77.377,142.292 77.421 C 142.292 77.464,141.729 77.500,141.042 77.500 C 139.589 77.500,139.634 77.616,140.343 75.667 C 140.972 73.940,141.021 73.949,141.756 75.910 M191.765 75.693 C 192.461 77.542,192.478 77.500,191.042 77.500 C 190.354 77.500,189.792 77.477,189.792 77.448 C 189.792 77.402,190.079 76.640,190.822 74.711 C 191.108 73.966,191.119 73.978,191.765 75.693 M165.000 107.500 L 165.000 117.500 175.000 117.500 L 185.000 117.500 185.000 107.500 L 185.000 97.500 175.000 97.500 L 165.000 97.500 165.000 107.500 M190.000 107.500 L 190.000 117.500 200.000 117.500 L 210.000 117.500 210.000 107.500 L 210.000 97.500 200.000 97.500 L 190.000 97.500 190.000 107.500 M215.000 107.500 L 215.000 117.500 225.000 117.500 L 235.000 117.500 235.000 107.500 L 235.000 97.500 225.000 97.500 L 215.000 97.500 215.000 107.500 M240.000 107.500 L 240.000 117.500 250.000 117.500 L 260.000 117.500 260.000 107.500 L 260.000 97.500 250.000 97.500 L 240.000 97.500 240.000 107.500 M140.000 132.500 L 140.000 142.500 150.000 142.500 L 160.000 142.500 160.000 132.500 L 160.000 122.500 150.000 122.500 L 140.000 122.500 140.000 132.500 M165.000 132.500 L 165.000 142.500 175.000 142.500 L 185.000 142.500 185.000 132.500 L 185.000 122.500 175.000 122.500 L 165.000 122.500 165.000 132.500 M190.000 132.500 L 190.000 142.500 200.000 142.500 L 210.000 142.500 210.000 132.500 L 210.000 122.500 200.000 122.500 L 190.000 122.500 190.000 132.500 M215.000 132.500 L 215.000 142.500 225.000 142.500 L 235.000 142.500 235.000 132.500 L 235.000 122.500 225.000 122.500 L 215.000 122.500 215.000 132.500 M240.000 132.500 L 240.000 142.500 250.000 142.500 L 260.000 142.500 260.000 132.500 L 260.000 122.500 250.000 122.500 L 240.000 122.500 240.000 132.500 M140.000 157.500 L 140.000 167.500 150.000 167.500 L 160.000 167.500 160.000 157.500 L 160.000 147.500 150.000 147.500 L 140.000 147.500 140.000 157.500 M165.000 157.500 L 165.000 167.500 175.000 167.500 L 185.000 167.500 185.000 157.500 L 185.000 147.500 175.000 147.500 L 165.000 147.500 165.000 157.500 M190.000 157.500 L 190.000 167.500 200.000 167.500 L 210.000 167.500 210.000 157.500 L 210.000 147.500 200.000 147.500 L 190.000 147.500 190.000 157.500 M215.000 157.500 L 215.000 167.500 225.000 167.500 L 235.000 167.500 235.000 157.500 L 235.000 147.500 225.000 147.500 L 215.000 147.500 215.000 157.500 M240.000 157.500 L 240.000 167.500 250.000 167.500 L 260.000 167.500 260.000 157.500 L 260.000 147.500 250.000 147.500 L 240.000 147.500 240.000 157.500 M140.000 182.500 L 140.000 192.500 150.000 192.500 L 160.000 192.500 160.000 182.500 L 160.000 172.500 150.000 172.500 L 140.000 172.500 140.000 182.500 M165.000 182.500 L 165.000 192.500 175.000 192.500 L 185.000 192.500 185.000 182.500 L 185.000 172.500 175.000 172.500 L 165.000 172.500 165.000 182.500 M190.000 182.500 L 190.000 192.500 200.000 192.500 L 210.000 192.500 210.000 182.500 L 210.000 172.500 200.000 172.500 L 190.000 172.500 190.000 182.500 " stroke="none" fill="#fff" fill-rule="evenodd"></path><path id="path2" d="M258.125 28.438 C 258.514 28.839,258.879 29.167,258.936 29.167 C 258.993 29.167,258.722 28.839,258.333 28.438 C 257.945 28.036,257.580 27.708,257.522 27.708 C 257.465 27.708,257.736 28.036,258.125 28.438 M160.417 34.440 C 160.417 34.476,160.721 34.781,161.094 35.117 L 161.771 35.729 161.159 35.052 C 160.589 34.421,160.417 34.279,160.417 34.440 M125.716 48.385 L 125.104 49.063 125.781 48.451 C 126.154 48.114,126.458 47.809,126.458 47.774 C 126.458 47.613,126.286 47.754,125.716 48.385 M162.146 71.875 C 162.146 72.505,162.185 72.763,162.233 72.448 C 162.280 72.133,162.280 71.617,162.233 71.302 C 162.185 70.987,162.146 71.245,162.146 71.875 M171.335 74.167 C 171.335 76.057,171.366 76.831,171.405 75.885 C 171.444 74.940,171.444 73.393,171.405 72.448 C 171.366 71.503,171.335 72.276,171.335 74.167 M198.906 70.987 C 199.508 71.029,200.492 71.029,201.094 70.987 C 201.695 70.945,201.203 70.910,200.000 70.910 C 198.797 70.910,198.305 70.945,198.906 70.987 M162.146 80.833 C 162.146 81.464,162.185 81.721,162.233 81.406 C 162.280 81.091,162.280 80.576,162.233 80.260 C 162.185 79.945,162.146 80.203,162.146 80.833 M120.049 136.615 L 120.104 185.729 120.559 187.322 C 122.700 194.824,128.093 200.115,135.549 202.029 C 136.899 202.375,140.500 202.396,200.000 202.396 L 263.021 202.396 264.792 201.914 C 272.045 199.939,277.407 194.618,279.421 187.396 L 279.886 185.729 279.946 136.615 L 280.007 87.500 200.000 87.500 L 119.994 87.500 120.049 136.615 M185.000 107.500 L 185.000 117.500 175.000 117.500 L 165.000 117.500 165.000 107.500 L 165.000 97.500 175.000 97.500 L 185.000 97.500 185.000 107.500 M210.000 107.500 L 210.000 117.500 200.000 117.500 L 190.000 117.500 190.000 107.500 L 190.000 97.500 200.000 97.500 L 210.000 97.500 210.000 107.500 M235.000 107.500 L 235.000 117.500 225.000 117.500 L 215.000 117.500 215.000 107.500 L 215.000 97.500 225.000 97.500 L 235.000 97.500 235.000 107.500 M260.000 107.500 L 260.000 117.500 250.000 117.500 L 240.000 117.500 240.000 107.500 L 240.000 97.500 250.000 97.500 L 260.000 97.500 260.000 107.500 M160.000 132.500 L 160.000 142.500 150.000 142.500 L 140.000 142.500 140.000 132.500 L 140.000 122.500 150.000 122.500 L 160.000 122.500 160.000 132.500 M185.000 132.500 L 185.000 142.500 175.000 142.500 L 165.000 142.500 165.000 132.500 L 165.000 122.500 175.000 122.500 L 185.000 122.500 185.000 132.500 M210.000 132.500 L 210.000 142.500 200.000 142.500 L 190.000 142.500 190.000 132.500 L 190.000 122.500 200.000 122.500 L 210.000 122.500 210.000 132.500 M235.000 132.500 L 235.000 142.500 225.000 142.500 L 215.000 142.500 215.000 132.500 L 215.000 122.500 225.000 122.500 L 235.000 122.500 235.000 132.500 M260.000 132.500 L 260.000 142.500 250.000 142.500 L 240.000 142.500 240.000 132.500 L 240.000 122.500 250.000 122.500 L 260.000 122.500 260.000 132.500 M160.000 157.500 L 160.000 167.500 150.000 167.500 L 140.000 167.500 140.000 157.500 L 140.000 147.500 150.000 147.500 L 160.000 147.500 160.000 157.500 M185.000 157.500 L 185.000 167.500 175.000 167.500 L 165.000 167.500 165.000 157.500 L 165.000 147.500 175.000 147.500 L 185.000 147.500 185.000 157.500 M210.000 157.500 L 210.000 167.500 200.000 167.500 L 190.000 167.500 190.000 157.500 L 190.000 147.500 200.000 147.500 L 210.000 147.500 210.000 157.500 M235.000 157.500 L 235.000 167.500 225.000 167.500 L 215.000 167.500 215.000 157.500 L 215.000 147.500 225.000 147.500 L 235.000 147.500 235.000 157.500 M260.000 157.500 L 260.000 167.500 250.000 167.500 L 240.000 167.500 240.000 157.500 L 240.000 147.500 250.000 147.500 L 260.000 147.500 260.000 157.500 M160.000 182.500 L 160.000 192.500 150.000 192.500 L 140.000 192.500 140.000 182.500 L 140.000 172.500 150.000 172.500 L 160.000 172.500 160.000 182.500 M185.000 182.500 L 185.000 192.500 175.000 192.500 L 165.000 192.500 165.000 182.500 L 165.000 172.500 175.000 172.500 L 185.000 172.500 185.000 182.500 M210.000 182.500 L 210.000 192.500 200.000 192.500 L 190.000 192.500 190.000 182.500 L 190.000 172.500 200.000 172.500 L 210.000 172.500 210.000 182.500 " stroke="none" fill="#dbdbdc" fill-rule="evenodd"></path><path id="path3" d="M153.027 51.422 L 152.409 51.564 153.548 52.379 C 157.915 55.502,158.997 59.046,156.463 61.924 C 154.909 63.690,153.113 63.810,150.168 62.346 C 148.171 61.354,148.166 61.354,148.737 62.474 C 150.745 66.410,155.532 67.286,158.347 64.232 C 162.947 59.241,159.118 50.020,153.027 51.422 M183.027 51.422 L 182.409 51.564 183.548 52.379 C 187.335 55.088,188.558 57.793,187.274 60.625 C 185.981 63.478,183.684 64.039,180.206 62.352 C 178.159 61.359,178.168 61.358,178.737 62.474 C 180.784 66.486,185.702 67.265,188.544 64.028 C 192.907 59.059,188.967 50.055,183.027 51.422 M213.073 51.382 C 212.513 51.546,212.625 51.746,213.698 52.496 C 217.880 55.420,218.957 59.091,216.463 61.924 C 214.909 63.690,213.113 63.810,210.168 62.346 C 208.168 61.352,208.165 61.353,208.744 62.489 C 211.265 67.430,217.370 67.210,219.771 62.093 C 222.136 57.049,217.740 50.019,213.073 51.382 M243.027 51.422 L 242.409 51.564 243.548 52.379 C 247.915 55.502,248.997 59.046,246.463 61.924 C 244.909 63.690,243.113 63.810,240.168 62.346 C 238.171 61.354,238.166 61.354,238.737 62.474 C 240.784 66.486,245.702 67.265,248.544 64.028 C 252.911 59.054,248.972 50.054,243.027 51.422 " stroke="none" fill="#f9da5d" fill-rule="evenodd"></path><path id="path4" d="M160.473 58.750 C 160.473 59.266,160.514 59.477,160.564 59.219 C 160.613 58.961,160.613 58.539,160.564 58.281 C 160.514 58.023,160.473 58.234,160.473 58.750 M190.473 58.750 C 190.473 59.266,190.514 59.477,190.564 59.219 C 190.613 58.961,190.613 58.539,190.564 58.281 C 190.514 58.023,190.473 58.234,190.473 58.750 M220.473 58.750 C 220.473 59.266,220.514 59.477,220.564 59.219 C 220.613 58.961,220.613 58.539,220.564 58.281 C 220.514 58.023,220.473 58.234,220.473 58.750 M250.473 58.750 C 250.473 59.266,250.514 59.477,250.564 59.219 C 250.613 58.961,250.613 58.539,250.564 58.281 C 250.514 58.023,250.473 58.234,250.473 58.750 M153.802 66.185 C 154.003 66.238,154.331 66.238,154.531 66.185 C 154.732 66.133,154.568 66.090,154.167 66.090 C 153.766 66.090,153.602 66.133,153.802 66.185 M213.700 66.189 C 213.959 66.239,214.334 66.237,214.534 66.185 C 214.733 66.133,214.521 66.092,214.063 66.094 C 213.604 66.097,213.441 66.139,213.700 66.189 M243.802 66.185 C 244.003 66.238,244.331 66.238,244.531 66.185 C 244.732 66.133,244.568 66.090,244.167 66.090 C 243.766 66.090,243.602 66.133,243.802 66.185 M140.365 70.776 C 140.737 70.822,141.346 70.822,141.719 70.776 C 142.091 70.729,141.786 70.692,141.042 70.692 C 140.297 70.692,139.992 70.729,140.365 70.776 M189.928 70.781 C 189.875 70.867,190.423 70.938,191.146 70.938 C 191.869 70.938,192.417 70.867,192.364 70.781 C 192.311 70.695,191.763 70.625,191.146 70.625 C 190.529 70.625,189.981 70.695,189.928 70.781 M155.925 76.354 C 155.924 79.448,155.953 80.743,155.989 79.231 C 156.025 77.720,156.025 75.189,155.989 73.606 C 155.954 72.024,155.925 73.260,155.925 76.354 M173.841 76.354 C 173.841 79.448,173.870 80.743,173.906 79.231 C 173.941 77.720,173.941 75.189,173.906 73.606 C 173.870 72.024,173.841 73.260,173.841 76.354 M176.133 76.354 C 176.133 79.448,176.162 80.743,176.197 79.231 C 176.233 77.720,176.233 75.189,176.197 73.606 C 176.162 72.024,176.133 73.260,176.133 76.354 M197.807 76.354 L 197.813 81.979 199.101 82.041 L 200.389 82.103 200.455 79.905 C 200.491 78.696,200.451 77.708,200.365 77.708 C 200.279 77.708,200.208 78.646,200.208 79.792 L 200.208 81.875 199.066 81.875 L 197.923 81.875 197.863 76.302 L 197.802 70.729 197.807 76.354 M158.418 73.205 C 158.357 73.364,158.343 73.903,158.388 74.403 C 158.469 75.309,158.469 75.308,158.505 74.227 L 158.542 73.141 160.469 73.072 L 162.396 73.003 160.462 72.960 C 158.976 72.927,158.503 72.984,158.418 73.205 M200.277 74.271 C 200.278 75.073,200.315 75.376,200.360 74.943 C 200.405 74.511,200.405 73.855,200.359 73.485 C 200.313 73.115,200.276 73.469,200.277 74.271 M178.626 76.354 C 178.626 78.188,178.658 78.910,178.697 77.959 C 178.736 77.008,178.735 75.508,178.696 74.626 C 178.657 73.743,178.626 74.521,178.626 76.354 M205.265 74.167 C 205.265 74.682,205.306 74.893,205.355 74.635 C 205.405 74.378,205.405 73.956,205.355 73.698 C 205.306 73.440,205.265 73.651,205.265 74.167 M125.261 76.354 C 125.263 76.813,125.306 76.975,125.356 76.716 C 125.406 76.457,125.404 76.082,125.351 75.883 C 125.299 75.684,125.259 75.896,125.261 76.354 M140.938 77.292 L 139.688 77.430 140.873 77.465 C 141.525 77.484,142.117 77.406,142.188 77.292 C 142.258 77.177,142.287 77.099,142.252 77.118 C 142.216 77.138,141.625 77.216,140.938 77.292 M158.418 77.580 C 158.357 77.739,158.336 78.278,158.372 78.778 L 158.438 79.688 160.417 79.701 L 162.396 79.714 160.469 79.641 L 158.542 79.568 158.542 78.542 L 158.542 77.516 160.365 77.447 L 162.188 77.377 160.358 77.335 C 158.961 77.302,158.502 77.360,158.418 77.580 M190.577 77.443 C 190.951 77.489,191.514 77.488,191.827 77.441 C 192.140 77.393,191.833 77.355,191.146 77.356 C 190.458 77.357,190.202 77.396,190.577 77.443 M152.125 79.736 L 153.937 79.807 154.020 80.893 L 154.102 81.979 154.082 80.833 L 154.063 79.688 152.188 79.676 L 150.313 79.664 152.125 79.736 M135.433 81.520 C 135.413 81.988,138.155 81.974,138.249 81.505 C 138.278 81.359,138.254 81.336,138.196 81.453 C 138.040 81.767,135.683 81.726,135.555 81.406 C 135.493 81.254,135.443 81.301,135.433 81.520 M143.886 81.719 C 143.939 81.805,144.587 81.875,145.325 81.875 C 146.063 81.875,146.667 81.805,146.667 81.719 C 146.667 81.633,146.019 81.563,145.228 81.563 C 144.437 81.563,143.833 81.633,143.886 81.719 M186.193 81.817 C 186.563 81.863,187.219 81.864,187.652 81.819 C 188.084 81.774,187.781 81.736,186.979 81.735 C 186.177 81.734,185.823 81.771,186.193 81.817 M194.527 81.817 C 194.896 81.863,195.553 81.864,195.985 81.819 C 196.417 81.774,196.115 81.736,195.313 81.735 C 194.510 81.734,194.157 81.771,194.527 81.817 M204.323 82.028 C 204.810 82.071,205.607 82.071,206.094 82.028 C 206.581 81.984,206.182 81.948,205.208 81.948 C 204.234 81.948,203.836 81.984,204.323 82.028 " stroke="none" fill="#b2bce0" fill-rule="evenodd"></path><path id="path5" d="M154.688 23.526 C 143.222 24.969,136.126 38.538,140.391 50.868 C 143.871 60.932,155.529 67.315,157.496 60.234 C 158.315 57.288,157.290 55.180,153.763 52.552 C 148.212 48.416,147.378 40.498,151.946 35.307 C 156.129 30.554,163.958 34.363,163.958 41.151 C 163.958 42.495,163.968 42.500,166.658 42.500 L 169.104 42.500 169.228 44.635 C 169.565 50.430,171.818 55.514,175.595 58.997 C 181.137 64.109,185.424 64.707,187.274 60.625 C 188.573 57.759,187.395 55.174,183.501 52.348 C 178.233 48.525,177.489 40.371,181.946 35.307 C 185.959 30.747,192.677 33.558,193.781 40.259 C 194.197 42.780,193.840 42.500,196.639 42.500 L 199.104 42.500 199.228 44.635 C 199.556 50.274,201.747 55.334,205.350 58.770 C 210.242 63.434,214.156 64.545,216.463 61.924 C 218.957 59.091,217.880 55.420,213.698 52.496 C 213.154 52.116,212.708 51.727,212.708 51.631 C 212.708 51.536,212.610 51.458,212.490 51.458 C 212.147 51.458,211.308 50.427,210.541 49.063 C 206.209 41.354,212.291 30.277,219.063 33.544 C 221.311 34.629,223.326 37.496,223.781 40.259 C 224.197 42.780,223.840 42.500,226.639 42.500 L 229.104 42.500 229.228 44.635 C 229.622 51.411,232.231 56.423,237.604 60.728 C 242.815 64.903,247.719 63.740,247.703 58.333 C 247.696 56.202,246.701 54.742,243.763 52.552 C 238.973 48.983,237.674 43.189,240.411 37.604 C 243.904 30.481,252.450 32.178,253.781 40.259 C 253.899 40.976,254.036 41.773,254.085 42.031 C 254.174 42.498,254.195 42.500,258.100 42.500 C 260.259 42.500,262.475 42.562,263.025 42.637 L 264.025 42.774 263.895 41.086 C 262.548 23.621,242.053 17.132,232.828 31.250 C 231.481 33.312,231.541 33.265,231.168 32.542 C 225.076 20.763,208.985 20.569,202.173 32.193 C 201.526 33.297,201.553 33.288,201.155 32.518 C 195.264 21.125,179.889 20.476,172.770 31.321 C 171.484 33.280,171.659 33.277,170.409 31.363 C 166.826 25.874,160.619 22.780,154.688 23.526 " stroke="none" fill="#545454" fill-rule="evenodd"></path></g></svg>