<svg id="svg" version="1.1" width="400" height="400" viewBox="0 0 400 400" xmlns="http://www.w3.org/2000/svg" xmlns:xlink="http://www.w3.org/1999/xlink" ><g id="svgg"><path id="path0" d="M192.200 76.465 C 188.744 76.988,181.605 78.386,180.200 78.816 C 179.540 79.018,177.650 79.565,176.000 80.032 C 174.350 80.499,172.640 81.025,172.200 81.200 C 171.760 81.376,170.770 81.736,170.000 82.000 C 165.818 83.436,160.496 85.897,156.859 88.077 C 155.462 88.915,154.241 89.600,154.146 89.600 C 151.763 89.600,135.316 103.655,129.792 110.412 C 124.514 116.868,121.031 122.141,117.986 128.290 C 115.966 132.369,116.221 132.236,112.280 131.256 C 104.155 129.235,95.694 129.389,88.000 131.696 C 66.983 137.998,52.800 156.692,52.800 178.094 C 52.800 182.605,53.033 184.389,54.278 189.400 C 54.606 190.720,54.962 192.171,55.069 192.623 C 55.225 193.284,54.791 193.739,52.873 194.923 C 48.291 197.751,40.989 204.140,36.784 209.000 C 34.580 211.548,31.200 216.176,31.200 216.646 C 31.200 216.761,30.691 217.608,30.068 218.528 C 29.117 219.934,26.392 225.309,25.165 228.200 C 24.565 229.615,22.490 236.161,22.249 237.400 C 22.121 238.060,21.727 239.860,21.374 241.400 C 20.581 244.863,20.458 260.948,21.193 265.118 C 23.262 276.850,27.292 286.309,34.179 295.600 C 41.614 305.630,50.986 313.126,62.200 318.013 C 63.300 318.492,64.740 319.124,65.400 319.417 C 68.758 320.909,76.363 322.749,82.600 323.579 C 86.924 324.155,287.477 324.169,292.600 323.594 C 299.521 322.817,307.068 321.178,311.000 319.598 C 311.440 319.421,313.330 318.682,315.200 317.955 C 339.995 308.323,359.973 284.061,364.402 258.200 C 364.666 256.660,365.043 254.536,365.241 253.480 C 365.732 250.855,365.695 235.677,365.190 232.433 C 364.518 228.117,363.796 224.847,362.399 219.800 C 361.818 217.703,361.250 216.111,359.154 210.718 C 354.311 198.247,339.724 181.367,327.800 174.434 C 323.816 172.117,317.959 169.170,315.400 168.194 C 313.860 167.607,312.240 166.975,311.800 166.790 C 311.360 166.604,310.280 166.236,309.400 165.971 C 308.520 165.705,307.350 165.347,306.800 165.174 C 306.250 165.000,304.810 164.646,303.600 164.387 C 299.985 163.612,300.415 164.418,298.800 155.400 C 297.883 150.286,295.450 141.544,293.983 138.100 C 293.772 137.605,293.438 136.795,293.241 136.300 C 291.481 131.892,288.895 126.565,287.525 124.528 C 286.906 123.608,286.400 122.746,286.400 122.613 C 286.400 120.190,272.334 103.723,265.600 98.262 C 263.950 96.924,262.510 95.713,262.400 95.571 C 261.470 94.373,251.326 88.138,246.600 85.860 C 237.182 81.319,233.875 80.160,224.200 78.009 C 222.437 77.617,219.204 77.046,215.167 76.413 C 212.005 75.917,195.580 75.955,192.200 76.465 M214.035 98.185 C 220.338 99.164,222.124 99.509,224.000 100.109 C 224.990 100.426,226.610 100.923,227.600 101.215 C 231.235 102.285,239.220 106.027,238.454 106.302 C 237.966 106.477,236.780 106.204,233.600 105.187 C 233.050 105.011,231.970 104.754,231.200 104.615 C 230.430 104.477,228.270 104.070,226.400 103.712 C 222.130 102.893,207.608 102.800,203.400 103.563 C 197.317 104.667,191.537 106.197,188.200 107.585 C 187.760 107.769,186.680 108.222,185.800 108.594 C 171.761 114.519,158.497 125.893,150.572 138.800 C 149.125 141.157,147.693 143.961,144.035 151.600 C 139.261 161.571,136.974 162.606,127.000 159.315 C 118.757 156.596,113.274 156.054,107.200 157.358 C 98.840 159.154,93.141 163.180,88.865 170.313 C 84.946 176.851,84.160 185.685,86.899 192.400 C 87.123 192.950,87.454 193.760,87.633 194.200 C 91.804 204.423,91.124 208.412,84.600 212.000 C 83.272 212.730,79.117 215.678,78.400 216.399 C 77.925 216.877,74.813 219.143,72.619 220.609 C 69.696 222.563,64.420 227.792,62.000 231.136 C 57.162 237.821,54.928 243.171,53.180 252.261 C 52.667 254.933,52.883 264.309,53.539 267.800 C 54.115 270.863,55.253 274.956,55.647 275.380 C 55.841 275.589,56.000 276.016,56.000 276.329 C 56.000 279.955,64.305 291.473,71.000 297.132 C 72.842 298.688,72.907 298.800,71.820 298.548 C 68.048 297.670,58.471 290.966,54.759 286.604 C 54.011 285.726,53.067 284.646,52.659 284.204 C 50.365 281.716,46.705 275.315,45.223 271.200 C 44.946 270.430,44.568 269.440,44.383 269.000 C 42.357 264.178,41.400 249.871,42.738 244.400 C 43.886 239.704,46.087 233.648,47.267 231.938 C 47.670 231.354,48.000 230.761,48.000 230.620 C 48.000 228.546,58.633 217.024,63.200 214.149 C 64.630 213.249,67.510 211.458,69.600 210.168 C 79.637 203.977,81.007 200.895,77.766 191.800 C 75.962 186.738,75.681 185.878,74.975 183.280 C 74.337 180.929,74.204 174.762,74.753 172.960 C 74.948 172.322,75.344 170.990,75.635 170.000 C 75.925 169.010,76.514 167.570,76.943 166.800 C 77.372 166.030,78.100 164.703,78.562 163.851 C 79.823 161.520,85.874 155.991,88.633 154.647 C 92.721 152.656,93.345 152.461,97.800 151.771 C 104.665 150.709,108.984 151.225,116.600 154.018 C 125.268 157.196,128.379 155.924,132.501 147.515 C 133.719 145.032,135.458 141.470,136.367 139.600 C 142.090 127.823,151.199 117.608,163.000 109.733 C 172.002 103.725,181.170 100.277,194.000 98.073 C 197.570 97.460,209.806 97.528,214.035 98.185 M298.200 185.285 C 301.611 186.026,307.250 188.011,310.703 189.685 C 314.059 191.313,315.360 192.316,313.559 191.888 C 307.838 190.528,303.446 189.506,301.800 189.150 C 296.946 188.102,292.400 185.888,292.400 184.572 C 292.400 184.309,295.407 184.678,298.200 185.285 M143.233 227.212 C 146.863 228.539,146.989 229.573,144.095 234.256 L 143.566 235.111 141.929 234.320 C 131.954 229.501,122.295 241.465,129.690 249.480 C 132.064 252.053,138.396 252.987,141.923 251.283 L 143.609 250.468 144.089 251.334 C 146.784 256.188,146.790 256.820,144.156 258.020 C 136.184 261.652,126.425 258.719,121.633 251.251 C 113.097 237.950,127.810 221.575,143.233 227.212 M162.000 239.600 L 162.200 252.600 167.500 252.712 L 172.800 252.823 172.800 256.012 L 172.800 259.200 163.800 259.200 L 154.800 259.200 154.800 242.784 L 154.800 226.369 158.300 226.484 L 161.800 226.600 162.000 239.600 M188.800 242.816 L 188.800 259.231 185.300 259.116 L 181.800 259.000 181.695 243.201 C 181.571 224.479,181.149 226.400,185.387 226.400 L 188.800 226.400 188.800 242.816 M207.851 227.100 C 208.214 228.228,211.105 236.169,211.600 237.400 C 211.777 237.840,212.314 239.280,212.793 240.600 C 214.325 244.824,214.769 245.196,215.546 242.906 C 216.110 241.243,217.498 237.449,217.999 236.200 C 218.175 235.760,218.536 234.770,218.800 234.000 C 219.064 233.230,219.425 232.240,219.601 231.800 C 219.778 231.360,220.323 229.959,220.813 228.686 L 221.704 226.372 225.552 226.486 L 229.400 226.600 229.665 230.200 C 229.810 232.180,230.138 236.140,230.392 239.000 C 231.124 247.241,231.565 252.344,231.852 255.900 L 232.119 259.200 228.516 259.200 L 224.913 259.200 224.667 255.900 C 224.533 254.085,224.244 250.186,224.027 247.236 C 223.663 242.299,223.133 240.167,222.633 241.633 C 222.526 241.945,221.342 245.530,220.001 249.600 C 216.475 260.300,217.077 259.258,214.506 259.118 L 212.323 259.000 209.296 249.900 C 207.631 244.895,206.143 240.800,205.988 240.800 C 205.690 240.800,205.467 243.012,204.800 252.588 C 204.571 255.882,204.235 258.725,204.054 258.906 C 203.497 259.463,196.984 259.080,197.101 258.497 C 197.157 258.220,197.390 255.610,197.619 252.697 C 197.849 249.783,198.200 245.510,198.400 243.200 C 198.600 240.890,198.945 236.750,199.166 234.000 C 199.387 231.250,199.687 228.415,199.834 227.700 L 200.100 226.400 203.863 226.400 C 207.093 226.400,207.657 226.499,207.851 227.100 M257.879 230.200 C 258.645 232.180,259.412 234.160,259.583 234.600 C 259.753 235.040,260.080 235.850,260.310 236.400 C 260.539 236.950,261.839 240.280,263.200 243.800 C 264.561 247.320,265.837 250.605,266.037 251.100 C 268.085 256.176,268.800 258.135,268.800 258.668 C 268.800 259.118,268.069 259.207,265.129 259.115 L 261.458 259.000 260.677 257.000 C 260.248 255.900,259.695 254.501,259.449 253.891 L 259.000 252.782 253.029 252.891 L 247.059 253.000 246.278 255.000 C 244.445 259.697,245.080 259.200,240.902 259.200 C 238.713 259.200,237.200 259.037,237.200 258.802 C 237.200 258.583,238.026 256.288,239.036 253.702 C 240.046 251.116,241.012 248.640,241.183 248.200 C 241.353 247.760,241.680 246.950,241.910 246.400 C 242.139 245.850,243.439 242.520,244.800 239.000 C 246.161 235.480,247.437 232.195,247.637 231.700 C 248.429 229.736,248.739 228.946,249.214 227.685 L 249.709 226.370 253.097 226.485 L 256.485 226.600 257.879 230.200 M252.009 239.500 C 251.522 240.765,250.783 242.675,250.366 243.744 C 249.380 246.272,249.507 246.400,253.000 246.400 C 256.645 246.400,256.647 246.397,255.238 242.547 C 252.905 236.170,253.187 236.436,252.009 239.500 " stroke="none" fill="#5474fb" fill-rule="evenodd"></path><path id="path1" d="M0.000 200.000 L 0.000 400.000 200.000 400.000 L 400.000 400.000 400.000 200.000 L 400.000 0.000 200.000 0.000 L 0.000 0.000 0.000 200.000 M153.800 73.377 C 158.044 74.251,159.495 74.655,163.200 75.994 C 167.182 77.433,172.400 80.004,172.400 80.527 C 172.400 80.968,173.649 80.744,177.600 79.593 C 188.709 76.356,205.656 74.921,215.167 76.413 C 219.204 77.046,222.437 77.617,224.200 78.009 C 233.875 80.160,237.182 81.319,246.600 85.860 C 251.326 88.138,261.470 94.373,262.400 95.571 C 262.510 95.713,263.950 96.924,265.600 98.262 C 272.334 103.723,286.400 120.190,286.400 122.613 C 286.400 122.746,286.906 123.608,287.525 124.528 C 288.893 126.562,291.773 132.499,293.187 136.200 C 293.355 136.640,293.689 137.450,293.930 138.000 C 295.396 141.358,297.863 150.171,298.800 155.400 C 300.415 164.418,299.985 163.612,303.600 164.387 C 304.810 164.646,306.250 165.000,306.800 165.174 C 307.350 165.347,308.520 165.705,309.400 165.971 C 310.280 166.236,311.360 166.604,311.800 166.790 C 312.240 166.975,313.860 167.607,315.400 168.194 C 317.959 169.170,323.816 172.117,327.800 174.434 C 339.724 181.367,354.311 198.247,359.154 210.718 C 361.250 216.111,361.818 217.703,362.399 219.800 C 363.796 224.847,364.518 228.117,365.190 232.433 C 365.695 235.677,365.732 250.855,365.241 253.480 C 365.043 254.536,364.666 256.660,364.402 258.200 C 359.973 284.061,339.995 308.323,315.200 317.955 C 313.330 318.682,311.440 319.421,311.000 319.598 C 307.068 321.178,299.521 322.817,292.600 323.594 C 287.477 324.169,86.924 324.155,82.600 323.579 C 76.363 322.749,68.758 320.909,65.400 319.417 C 64.740 319.124,63.300 318.492,62.200 318.013 C 40.555 308.581,25.414 289.050,21.193 265.118 C 20.458 260.948,20.581 244.863,21.374 241.400 C 21.727 239.860,22.121 238.060,22.249 237.400 C 22.490 236.161,24.565 229.615,25.165 228.200 C 26.392 225.309,29.117 219.934,30.068 218.528 C 30.691 217.608,31.200 216.761,31.200 216.646 C 31.200 216.176,34.580 211.548,36.784 209.000 C 40.989 204.140,48.291 197.751,52.873 194.923 C 54.791 193.739,55.225 193.284,55.069 192.623 C 54.962 192.171,54.606 190.720,54.278 189.400 C 51.874 179.720,52.200 172.383,55.479 162.404 C 59.151 151.230,69.538 139.500,80.000 134.714 C 82.521 133.560,86.529 132.000,86.969 132.001 C 87.255 132.002,87.352 130.826,87.256 128.501 C 86.385 107.301,101.715 84.691,122.600 76.371 C 124.434 75.641,128.347 74.440,130.400 73.979 C 131.610 73.707,133.140 73.347,133.800 73.178 C 136.033 72.609,150.780 72.756,153.800 73.377 M194.000 98.073 C 167.651 102.599,147.180 117.349,136.367 139.600 C 135.458 141.470,133.719 145.032,132.501 147.515 C 128.379 155.924,125.268 157.196,116.600 154.018 C 108.984 151.225,104.665 150.709,97.800 151.771 C 89.874 152.998,81.635 158.171,78.562 163.851 C 78.100 164.703,77.372 166.030,76.943 166.800 C 76.514 167.570,75.925 169.010,75.635 170.000 C 75.344 170.990,74.948 172.322,74.753 172.960 C 74.204 174.762,74.337 180.929,74.975 183.280 C 75.681 185.878,75.962 186.738,77.766 191.800 C 81.007 200.895,79.637 203.977,69.600 210.168 C 67.510 211.458,64.630 213.249,63.200 214.149 C 58.633 217.024,48.000 228.546,48.000 230.620 C 48.000 230.761,47.670 231.354,47.267 231.938 C 46.087 233.648,43.886 239.704,42.738 244.400 C 41.400 249.871,42.357 264.178,44.383 269.000 C 44.568 269.440,44.946 270.430,45.223 271.200 C 46.705 275.315,50.365 281.716,52.659 284.204 C 53.067 284.646,54.011 285.726,54.759 286.604 C 58.471 290.966,68.048 297.670,71.820 298.548 C 72.907 298.800,72.842 298.688,71.000 297.132 C 64.305 291.473,56.000 279.955,56.000 276.329 C 56.000 276.016,55.841 275.589,55.647 275.380 C 55.253 274.956,54.115 270.863,53.539 267.800 C 52.883 264.309,52.667 254.933,53.180 252.261 C 54.928 243.171,57.162 237.821,62.000 231.136 C 64.420 227.792,69.696 222.563,72.619 220.609 C 74.813 219.143,77.925 216.877,78.400 216.399 C 79.117 215.678,83.272 212.730,84.600 212.000 C 91.124 208.412,91.804 204.423,87.633 194.200 C 87.454 193.760,87.123 192.950,86.899 192.400 C 82.718 182.151,86.610 169.322,96.052 162.225 C 101.051 158.467,106.595 156.800,114.094 156.800 C 118.877 156.800,120.098 157.038,127.000 159.315 C 136.974 162.606,139.261 161.571,144.035 151.600 C 147.693 143.961,149.125 141.157,150.572 138.800 C 158.497 125.893,171.761 114.519,185.800 108.594 C 186.680 108.222,187.760 107.769,188.200 107.585 C 191.537 106.197,197.317 104.667,203.400 103.563 C 207.608 102.800,222.130 102.893,226.400 103.712 C 228.270 104.070,230.430 104.477,231.200 104.615 C 231.970 104.754,233.050 105.011,233.600 105.187 C 236.780 106.204,237.966 106.477,238.454 106.302 C 239.220 106.027,231.235 102.285,227.600 101.215 C 226.610 100.923,224.990 100.426,224.000 100.109 C 222.124 99.509,220.338 99.164,214.035 98.185 C 209.806 97.528,197.570 97.460,194.000 98.073 M292.400 184.572 C 292.400 185.888,296.946 188.102,301.800 189.150 C 303.446 189.506,307.838 190.528,313.559 191.888 C 317.216 192.757,309.272 188.698,303.800 186.901 C 298.875 185.285,292.400 183.962,292.400 184.572 M132.973 226.344 C 125.613 227.658,119.192 235.313,119.204 242.760 C 119.224 254.927,132.765 263.209,144.156 258.020 C 146.790 256.820,146.784 256.188,144.089 251.334 L 143.609 250.468 141.923 251.283 C 138.396 252.987,132.064 252.053,129.690 249.480 C 122.295 241.465,131.954 229.501,141.929 234.320 L 143.566 235.111 144.095 234.256 C 145.786 231.519,146.553 229.181,145.955 228.583 C 144.270 226.899,136.943 225.635,132.973 226.344 M154.800 242.784 L 154.800 259.200 163.800 259.200 L 172.800 259.200 172.800 256.012 L 172.800 252.823 167.500 252.712 L 162.200 252.600 162.000 239.600 L 161.800 226.600 158.300 226.484 L 154.800 226.369 154.800 242.784 M181.783 226.901 C 181.677 227.176,181.638 234.511,181.695 243.201 L 181.800 259.000 185.300 259.116 L 188.800 259.231 188.800 242.816 L 188.800 226.400 185.387 226.400 C 183.023 226.400,181.916 226.554,181.783 226.901 M199.834 227.700 C 199.687 228.415,199.387 231.250,199.166 234.000 C 198.945 236.750,198.600 240.890,198.400 243.200 C 198.200 245.510,197.849 249.783,197.619 252.697 C 197.390 255.610,197.157 258.220,197.101 258.497 C 196.984 259.080,203.497 259.463,204.054 258.906 C 204.235 258.725,204.571 255.882,204.800 252.588 C 205.467 243.012,205.690 240.800,205.988 240.800 C 206.143 240.800,207.631 244.895,209.296 249.900 L 212.323 259.000 214.506 259.118 C 217.077 259.258,216.475 260.300,220.001 249.600 C 221.342 245.530,222.526 241.945,222.633 241.633 C 223.133 240.167,223.663 242.299,224.027 247.236 C 224.244 250.186,224.533 254.085,224.667 255.900 L 224.913 259.200 228.516 259.200 L 232.119 259.200 231.852 255.900 C 231.565 252.344,231.124 247.241,230.392 239.000 C 230.138 236.140,229.810 232.180,229.665 230.200 L 229.400 226.600 225.552 226.486 L 221.704 226.372 220.813 228.686 C 220.323 229.959,219.778 231.360,219.601 231.800 C 219.425 232.240,219.064 233.230,218.800 234.000 C 218.536 234.770,218.175 235.760,217.999 236.200 C 217.498 237.449,216.110 241.243,215.546 242.906 C 214.769 245.196,214.325 244.824,212.793 240.600 C 212.314 239.280,211.777 237.840,211.600 237.400 C 211.105 236.169,208.214 228.228,207.851 227.100 C 207.657 226.499,207.093 226.400,203.863 226.400 L 200.100 226.400 199.834 227.700 M249.214 227.685 C 248.739 228.946,248.429 229.736,247.637 231.700 C 247.437 232.195,246.161 235.480,244.800 239.000 C 243.439 242.520,242.139 245.850,241.910 246.400 C 241.680 246.950,241.353 247.760,241.183 248.200 C 241.012 248.640,240.046 251.116,239.036 253.702 C 238.026 256.288,237.200 258.583,237.200 258.802 C 237.200 259.037,238.713 259.200,240.902 259.200 C 245.080 259.200,244.445 259.697,246.278 255.000 L 247.059 253.000 253.029 252.891 L 259.000 252.782 259.449 253.891 C 259.695 254.501,260.248 255.900,260.677 257.000 L 261.458 259.000 265.129 259.115 C 268.069 259.207,268.800 259.118,268.800 258.668 C 268.800 258.135,268.085 256.176,266.037 251.100 C 265.837 250.605,264.561 247.320,263.200 243.800 C 261.839 240.280,260.539 236.950,260.310 236.400 C 260.080 235.850,259.753 235.040,259.583 234.600 C 259.412 234.160,258.645 232.180,257.879 230.200 L 256.485 226.600 253.097 226.485 L 249.709 226.370 249.214 227.685 M253.653 238.300 C 256.893 246.523,256.903 246.400,253.000 246.400 C 249.507 246.400,249.380 246.272,250.366 243.744 C 250.783 242.675,251.522 240.765,252.009 239.500 C 253.025 236.856,253.071 236.823,253.653 238.300 " stroke="none" fill="#fff" fill-rule="evenodd"></path><path id="path2" d="M133.800 73.178 C 133.140 73.347,131.610 73.707,130.400 73.979 C 110.250 78.509,93.307 95.562,88.649 116.000 C 87.057 122.988,86.684 131.975,88.000 131.654 C 97.510 129.333,104.113 129.225,112.280 131.256 C 116.221 132.236,115.966 132.369,117.986 128.290 C 121.031 122.141,124.514 116.868,129.792 110.412 C 135.316 103.655,151.763 89.600,154.146 89.600 C 154.241 89.600,155.462 88.915,156.859 88.077 C 159.822 86.301,162.095 85.200,167.800 82.779 C 168.240 82.592,169.410 82.179,170.400 81.861 C 173.026 81.018,172.850 80.391,169.512 78.699 C 164.769 76.295,159.804 74.614,153.800 73.377 C 150.780 72.756,136.033 72.609,133.800 73.178 " stroke="none" fill="#fbd757" fill-rule="evenodd"></path></g></svg>