<svg id="svg" version="1.1" width="400" height="400" viewBox="0 0 400 400" xmlns="http://www.w3.org/2000/svg" xmlns:xlink="http://www.w3.org/1999/xlink" ><g id="svgg"><path id="path0" d="M242.000 70.405 C 237.355 70.765,236.165 70.949,226.400 72.815 C 222.973 73.470,215.898 75.719,212.414 77.262 C 202.255 81.760,192.891 87.425,185.770 93.383 C 181.656 96.824,173.987 104.724,171.600 107.979 C 171.050 108.729,170.225 109.806,169.767 110.371 C 163.659 117.915,155.809 134.029,153.579 143.600 C 153.400 144.370,153.055 145.720,152.812 146.600 C 152.364 148.222,152.207 149.055,151.000 156.200 C 150.132 161.342,149.985 177.311,150.758 182.600 C 151.869 190.201,153.880 198.663,155.605 203.000 C 155.781 203.440,156.515 205.330,157.238 207.200 C 161.381 217.918,170.245 231.921,175.884 236.655 C 177.158 237.725,178.290 238.699,178.400 238.819 C 178.510 238.940,179.230 239.471,180.000 240.000 C 180.770 240.529,181.490 241.074,181.600 241.211 C 181.886 241.567,186.325 244.536,188.424 245.775 C 190.268 246.864,200.323 251.846,201.900 252.454 C 202.395 252.644,203.205 252.962,203.700 253.161 C 209.370 255.436,216.772 257.460,224.200 258.769 C 240.164 261.583,262.986 259.078,276.600 253.019 C 277.260 252.725,278.700 252.090,279.800 251.608 C 293.807 245.471,305.911 236.510,316.012 224.800 C 317.436 223.150,318.707 221.710,318.837 221.600 C 322.220 218.742,331.761 200.785,334.883 191.400 C 335.697 188.953,335.895 188.269,336.906 184.400 C 341.140 168.198,340.824 149.567,336.027 132.700 C 335.792 131.875,335.438 130.615,335.240 129.900 C 332.692 120.694,322.923 102.396,317.995 97.600 C 317.881 97.490,317.004 96.448,316.045 95.285 C 313.013 91.609,300.994 83.333,294.200 80.242 C 288.046 77.443,287.781 77.326,285.400 76.373 C 281.522 74.820,272.517 72.418,267.800 71.677 C 260.888 70.591,259.008 70.412,252.800 70.251 C 249.170 70.156,244.310 70.225,242.000 70.405 M241.256 90.100 C 246.723 91.763,245.749 100.008,240.087 99.996 C 237.591 99.991,230.614 100.762,228.600 101.266 C 224.472 102.298,221.414 103.153,220.200 103.615 C 219.760 103.782,218.770 104.146,218.000 104.423 C 214.592 105.650,205.602 110.500,204.800 111.544 C 204.690 111.687,203.880 112.328,203.000 112.967 C 198.464 116.263,191.062 124.749,188.057 130.098 C 187.627 130.864,187.081 131.830,186.844 132.245 C 185.962 133.788,184.000 138.440,184.000 138.986 C 184.000 139.298,183.841 139.651,183.648 139.770 C 183.454 139.890,183.197 140.396,183.076 140.894 C 182.955 141.392,182.650 142.520,182.398 143.400 C 181.165 147.708,180.480 152.056,180.150 157.670 C 179.810 163.476,178.862 164.800,175.046 164.800 C 169.126 164.800,168.167 157.743,172.000 142.400 C 172.247 141.410,172.549 140.103,172.671 139.495 C 172.793 138.887,173.051 138.292,173.246 138.171 C 173.441 138.051,173.600 137.601,173.600 137.171 C 173.600 136.741,173.759 136.077,173.953 135.695 C 174.148 135.313,174.490 134.550,174.715 134.000 C 181.529 117.300,197.090 101.364,212.200 95.612 C 213.299 95.193,214.806 94.589,216.000 94.087 C 216.550 93.856,217.450 93.550,218.000 93.406 C 218.550 93.263,219.630 92.966,220.400 92.746 C 224.882 91.467,228.168 90.857,234.000 90.222 C 236.530 89.946,238.828 89.693,239.106 89.660 C 239.385 89.627,240.352 89.825,241.256 90.100 M178.518 173.391 C 183.479 175.464,182.076 183.200,176.738 183.200 C 173.361 183.200,170.665 179.723,171.684 176.682 C 172.752 173.492,175.543 172.149,178.518 173.391 M112.162 282.899 C 65.748 329.394,67.916 326.852,67.886 334.800 C 67.862 341.208,69.079 342.400,75.646 342.400 C 82.808 342.400,81.968 343.128,127.568 297.420 L 167.736 257.157 164.968 254.328 C 160.826 250.096,153.170 242.614,152.863 242.499 C 152.714 242.443,134.399 260.623,112.162 282.899 " stroke="none" fill="#fbdb5c" fill-rule="evenodd"></path><path id="path1" d="M229.000 40.458 C 219.206 41.515,212.769 42.765,205.600 45.004 C 204.390 45.382,202.253 46.040,200.850 46.467 C 199.448 46.894,197.468 47.611,196.450 48.061 C 195.433 48.511,194.240 49.023,193.800 49.199 C 190.683 50.443,184.415 53.467,181.600 55.084 C 173.615 59.671,169.285 62.693,161.400 69.182 C 158.373 71.672,149.409 81.004,146.427 84.767 C 143.559 88.388,136.800 98.062,136.800 98.547 C 136.800 98.641,136.113 99.862,135.273 101.259 C 131.231 107.985,126.933 118.253,124.414 127.200 C 124.135 128.190,123.763 129.450,123.587 130.000 C 123.411 130.550,123.166 131.540,123.042 132.200 C 122.917 132.860,122.566 134.570,122.261 136.000 C 121.956 137.430,121.492 140.130,121.230 142.000 C 120.968 143.870,120.584 146.605,120.377 148.077 C 119.288 155.812,120.232 173.190,122.284 183.200 C 122.622 184.850,122.986 186.650,123.092 187.200 C 123.331 188.443,125.472 196.039,126.192 198.200 C 127.464 202.014,129.769 207.527,132.047 212.200 C 132.905 213.960,133.605 215.632,133.603 215.917 C 133.601 216.201,114.925 235.058,92.100 257.822 C 69.275 280.586,50.027 299.974,49.327 300.906 C 48.626 301.838,47.684 302.994,47.233 303.476 C 45.702 305.112,42.817 310.581,41.850 313.680 C 37.160 328.708,41.940 343.841,54.333 353.200 C 56.607 354.918,60.593 357.069,63.400 358.092 C 71.439 361.023,82.230 360.459,90.000 356.700 C 95.945 353.824,96.816 353.007,140.799 309.011 C 164.229 285.575,183.667 266.400,183.996 266.400 C 184.324 266.400,185.855 267.014,187.396 267.764 C 191.884 269.946,194.784 271.200,195.345 271.200 C 195.632 271.200,195.986 271.319,196.132 271.465 C 196.620 271.953,207.596 275.694,210.000 276.192 C 210.770 276.352,212.030 276.626,212.800 276.801 C 220.489 278.550,221.536 278.719,228.800 279.382 C 243.102 280.686,258.179 279.482,270.400 276.061 C 271.170 275.846,272.880 275.380,274.200 275.027 C 276.671 274.365,280.469 273.018,281.695 272.368 C 282.077 272.166,282.567 272.000,282.785 272.000 C 283.002 272.000,284.309 271.492,285.690 270.870 C 287.070 270.249,288.830 269.495,289.600 269.194 C 291.091 268.611,295.616 266.308,298.100 264.869 C 299.478 264.071,300.714 263.366,303.242 261.938 C 305.081 260.899,311.042 256.584,315.000 253.427 C 327.199 243.698,336.025 233.444,344.118 219.600 C 345.982 216.412,349.565 209.078,350.951 205.614 C 352.925 200.683,355.428 193.024,356.382 189.000 C 356.814 187.179,357.008 186.313,357.816 182.600 C 360.757 169.095,360.486 149.785,357.145 134.800 C 356.224 130.668,355.907 129.348,355.608 128.400 C 355.435 127.850,355.066 126.590,354.789 125.600 C 354.058 122.991,353.369 120.848,352.601 118.800 C 351.959 117.089,351.675 116.366,350.833 114.300 C 347.764 106.766,339.869 92.902,335.841 87.971 C 335.378 87.406,334.550 86.333,334.000 85.587 C 329.122 78.976,318.052 68.422,309.400 62.135 C 303.095 57.554,291.255 51.101,284.100 48.346 C 283.605 48.156,282.795 47.832,282.300 47.626 C 281.163 47.154,277.155 45.861,274.800 45.207 C 273.810 44.932,272.550 44.562,272.000 44.385 C 261.343 40.955,241.335 39.128,229.000 40.458 M248.173 60.408 C 258.189 61.536,264.999 62.883,271.400 65.003 C 298.025 73.820,319.788 93.681,331.445 119.800 C 332.661 122.525,334.703 127.959,335.240 129.900 C 335.438 130.615,335.792 131.875,336.027 132.700 C 340.824 149.567,341.140 168.198,336.906 184.400 C 335.895 188.269,335.697 188.953,334.883 191.400 C 331.761 200.785,322.220 218.742,318.837 221.600 C 318.707 221.710,317.436 223.150,316.012 224.800 C 305.911 236.510,293.807 245.471,279.800 251.608 C 278.700 252.090,277.260 252.725,276.600 253.019 C 264.978 258.191,245.754 260.962,230.969 259.596 C 221.706 258.740,211.153 256.238,203.600 253.107 C 203.050 252.879,202.240 252.561,201.800 252.400 C 200.428 251.898,190.291 246.877,188.424 245.775 C 186.325 244.536,181.886 241.567,181.600 241.211 C 181.490 241.074,180.770 240.529,180.000 240.000 C 179.230 239.471,178.510 238.937,178.400 238.813 C 178.290 238.689,177.570 238.074,176.800 237.447 C 160.852 224.457,148.685 205.791,143.527 186.400 C 136.530 160.090,140.321 131.496,153.710 109.600 C 154.584 108.170,155.658 106.370,156.097 105.600 C 161.490 96.127,176.879 81.073,187.400 74.979 C 188.500 74.341,189.940 73.507,190.600 73.125 C 192.941 71.768,198.778 68.976,203.400 67.003 C 208.271 64.924,215.660 62.825,223.200 61.379 C 229.480 60.175,241.833 59.695,248.173 60.408 M234.000 90.222 C 228.168 90.857,224.882 91.467,220.400 92.746 C 219.630 92.966,218.550 93.263,218.000 93.406 C 217.450 93.550,216.550 93.856,216.000 94.087 C 214.806 94.589,213.299 95.193,212.200 95.612 C 197.090 101.364,181.529 117.300,174.715 134.000 C 174.490 134.550,174.148 135.313,173.953 135.695 C 173.759 136.077,173.600 136.741,173.600 137.171 C 173.600 137.601,173.441 138.051,173.246 138.171 C 173.051 138.292,172.793 138.887,172.671 139.495 C 172.549 140.103,172.247 141.410,172.000 142.400 C 168.167 157.743,169.126 164.800,175.046 164.800 C 178.862 164.800,179.810 163.476,180.150 157.670 C 180.480 152.056,181.165 147.708,182.398 143.400 C 182.650 142.520,182.955 141.392,183.076 140.894 C 183.197 140.396,183.454 139.890,183.648 139.770 C 183.841 139.651,184.000 139.298,184.000 138.986 C 184.000 138.440,185.962 133.788,186.844 132.245 C 187.081 131.830,187.627 130.864,188.057 130.098 C 191.062 124.749,198.464 116.263,203.000 112.967 C 203.880 112.328,204.690 111.687,204.800 111.544 C 205.602 110.500,214.592 105.650,218.000 104.423 C 218.770 104.146,219.760 103.782,220.200 103.615 C 221.414 103.153,224.472 102.298,228.600 101.266 C 230.614 100.762,237.591 99.991,240.087 99.996 C 245.749 100.008,246.723 91.763,241.256 90.100 C 240.352 89.825,239.385 89.627,239.106 89.660 C 238.828 89.693,236.530 89.946,234.000 90.222 M174.600 173.361 C 170.954 174.970,170.390 179.414,173.505 181.982 C 175.745 183.829,177.980 183.714,180.047 181.647 C 184.050 177.644,179.742 171.091,174.600 173.361 M144.862 232.900 C 145.366 233.615,146.098 234.549,146.490 234.976 C 146.881 235.403,147.606 236.346,148.100 237.071 C 149.565 239.218,161.543 250.842,164.900 253.373 C 166.605 254.659,168.000 255.975,168.000 256.299 C 168.000 257.145,87.839 337.384,85.170 339.210 C 80.438 342.446,71.363 343.496,68.953 341.086 C 68.795 340.929,68.382 340.795,68.033 340.789 C 66.140 340.757,59.217 333.839,59.204 331.967 C 59.202 331.618,59.071 331.205,58.914 331.047 C 56.629 328.762,57.535 319.640,60.487 315.220 C 61.647 313.483,143.104 231.600,143.672 231.600 C 143.822 231.600,144.358 232.185,144.862 232.900 " stroke="none" fill="#455dcc" fill-rule="evenodd"></path><path id="path2" d="M0.000 200.000 L 0.000 400.000 200.000 400.000 L 400.000 400.000 400.000 200.000 L 400.000 0.000 200.000 0.000 L 0.000 0.000 0.000 200.000 M249.684 40.405 C 258.249 41.246,267.218 42.846,272.000 44.385 C 272.550 44.562,273.810 44.932,274.800 45.207 C 277.155 45.861,281.163 47.154,282.300 47.626 C 282.795 47.832,283.605 48.156,284.100 48.346 C 291.255 51.101,303.095 57.554,309.400 62.135 C 318.052 68.422,329.122 78.976,334.000 85.587 C 334.550 86.333,335.378 87.406,335.841 87.971 C 339.869 92.902,347.764 106.766,350.833 114.300 C 352.809 119.150,353.676 121.625,354.789 125.600 C 355.066 126.590,355.435 127.850,355.608 128.400 C 355.907 129.348,356.224 130.668,357.145 134.800 C 360.486 149.785,360.757 169.095,357.816 182.600 C 356.031 190.800,355.982 190.983,353.816 197.653 C 348.188 214.987,338.172 231.437,325.596 243.998 C 319.483 250.104,308.296 259.082,303.242 261.938 C 300.714 263.366,299.478 264.071,298.100 264.869 C 295.616 266.308,291.091 268.611,289.600 269.194 C 288.830 269.495,287.070 270.249,285.690 270.870 C 284.309 271.492,283.002 272.000,282.785 272.000 C 282.567 272.000,282.077 272.166,281.695 272.368 C 280.469 273.018,276.671 274.365,274.200 275.027 C 272.880 275.380,271.170 275.846,270.400 276.061 C 258.179 279.482,243.102 280.686,228.800 279.382 C 221.536 278.719,220.489 278.550,212.800 276.801 C 212.030 276.626,210.770 276.352,210.000 276.192 C 207.596 275.694,196.620 271.953,196.132 271.465 C 195.986 271.319,195.632 271.200,195.345 271.200 C 194.784 271.200,191.884 269.946,187.396 267.764 C 185.855 267.014,184.324 266.400,183.996 266.400 C 183.667 266.400,164.229 285.575,140.799 309.011 C 93.014 356.809,94.103 355.836,85.600 358.335 C 74.201 361.685,63.168 359.873,54.333 353.200 C 41.940 343.841,37.160 328.708,41.850 313.680 C 42.817 310.581,45.702 305.112,47.233 303.476 C 47.684 302.994,48.626 301.838,49.327 300.906 C 50.027 299.974,69.275 280.586,92.100 257.822 C 114.925 235.058,133.601 216.201,133.603 215.917 C 133.605 215.632,132.905 213.960,132.047 212.200 C 129.769 207.527,127.464 202.014,126.192 198.200 C 125.472 196.039,123.331 188.443,123.092 187.200 C 122.986 186.650,122.622 184.850,122.284 183.200 C 120.232 173.190,119.288 155.812,120.377 148.077 C 120.584 146.605,120.968 143.870,121.230 142.000 C 121.492 140.130,121.956 137.430,122.261 136.000 C 122.566 134.570,122.917 132.860,123.042 132.200 C 123.166 131.540,123.411 130.550,123.587 130.000 C 123.763 129.450,124.135 128.190,124.414 127.200 C 126.933 118.253,131.231 107.985,135.273 101.259 C 136.113 99.862,136.800 98.641,136.800 98.547 C 136.800 98.062,143.559 88.388,146.427 84.767 C 149.409 81.004,158.373 71.672,161.400 69.182 C 169.285 62.693,173.615 59.671,181.600 55.084 C 184.415 53.467,190.683 50.443,193.800 49.199 C 194.240 49.023,195.433 48.511,196.450 48.061 C 197.468 47.611,199.448 46.894,200.850 46.467 C 202.253 46.040,204.390 45.382,205.600 45.004 C 218.760 40.894,236.178 39.077,249.684 40.405 M229.200 60.605 C 223.845 61.194,222.771 61.383,216.500 62.842 C 212.155 63.853,206.779 65.561,203.400 67.003 C 198.778 68.976,192.941 71.768,190.600 73.125 C 189.940 73.507,188.500 74.341,187.400 74.979 C 176.879 81.073,161.490 96.127,156.097 105.600 C 155.658 106.370,154.584 108.170,153.710 109.600 C 141.087 130.243,137.119 155.593,142.407 181.800 C 145.913 199.177,156.850 218.848,169.949 231.336 C 172.843 234.095,173.035 233.971,170.667 230.870 C 165.270 223.800,160.202 214.868,157.238 207.200 C 156.515 205.330,155.781 203.440,155.605 203.000 C 150.945 191.286,148.784 169.324,151.000 156.200 C 152.207 149.055,152.364 148.222,152.812 146.600 C 153.055 145.720,153.400 144.370,153.579 143.600 C 155.809 134.029,163.659 117.915,169.767 110.371 C 170.225 109.806,171.050 108.729,171.600 107.979 C 180.211 96.237,195.437 84.793,212.559 77.195 C 217.381 75.056,224.785 73.007,232.600 71.648 C 233.920 71.419,236.260 71.012,237.800 70.743 C 241.444 70.108,258.018 70.116,262.000 70.755 C 263.650 71.020,266.260 71.435,267.800 71.677 C 272.739 72.453,282.062 74.968,285.600 76.480 C 286.150 76.715,286.960 77.044,287.400 77.212 C 288.125 77.488,289.129 77.935,294.200 80.242 C 297.853 81.904,307.306 87.833,311.700 91.219 C 315.419 94.085,307.956 86.420,303.400 82.694 C 295.129 75.930,286.160 70.652,276.368 66.786 C 262.391 61.268,244.504 58.924,229.200 60.605 M102.550 272.500 C 60.467 314.637,59.842 315.304,58.436 319.586 C 57.267 323.147,57.539 329.672,58.914 331.047 C 59.071 331.205,59.202 331.618,59.204 331.967 C 59.217 333.875,66.151 340.759,68.090 340.789 C 68.685 340.799,68.719 340.648,68.335 339.700 C 67.642 337.985,67.786 331.309,68.562 329.217 C 70.039 325.233,72.324 322.806,112.256 282.800 L 152.781 242.200 150.878 240.200 C 149.831 239.100,148.355 237.390,147.598 236.400 C 146.840 235.410,146.117 234.510,145.991 234.400 C 145.865 234.290,145.353 233.615,144.853 232.900 C 144.354 232.185,143.822 231.600,143.672 231.600 C 143.522 231.600,125.017 250.005,102.550 272.500 M164.788 254.149 C 167.428 256.852,168.000 257.226,168.000 256.248 C 168.000 255.944,166.974 254.909,165.719 253.948 C 162.183 251.238,161.987 251.280,164.788 254.149 " stroke="none" fill="#fff" fill-rule="evenodd"></path></g></svg>