<svg id="svg" version="1.1" width="400" height="426.73521850899743" viewBox="0 0 400 426.73521850899743" xmlns="http://www.w3.org/2000/svg" xmlns:xlink="http://www.w3.org/1999/xlink" ><g id="svgg"><path id="path0" d="M62.400 21.451 C 48.088 24.202,39.442 37.195,42.621 51.174 C 43.816 56.427,42.350 57.394,60.144 39.614 C 68.832 30.932,75.865 23.705,75.771 23.554 C 75.039 22.368,65.462 20.862,62.400 21.451 M70.029 30.571 L 63.467 37.142 65.634 37.100 C 70.367 37.009,74.000 40.568,74.000 45.295 C 74.000 56.048,58.587 56.527,57.633 45.805 L 57.400 43.184 50.839 49.758 L 44.277 56.332 45.706 58.466 C 48.195 62.184,52.675 65.956,56.345 67.424 L 58.000 68.087 58.000 72.747 L 58.000 77.408 66.000 85.400 L 74.000 93.392 74.000 80.726 L 74.000 68.059 76.100 67.087 C 92.903 59.316,94.666 35.684,79.205 25.452 C 77.998 24.654,76.916 24.000,76.801 24.000 C 76.685 24.000,73.638 26.957,70.029 30.571 M58.210 79.123 C 57.875 79.458,57.967 118.800,58.303 118.800 C 58.470 118.800,62.917 114.487,68.185 109.215 C 73.453 103.943,77.852 99.719,77.960 99.827 C 78.068 99.935,73.621 104.571,68.078 110.129 L 58.000 120.236 58.000 137.791 L 58.000 155.347 64.685 162.073 C 68.361 165.773,71.510 168.800,71.682 168.800 C 71.854 168.800,72.041 155.345,72.097 138.900 L 72.200 109.000 80.200 108.800 L 88.200 108.600 83.693 104.100 C 81.214 101.625,79.009 99.600,78.793 99.600 C 78.577 99.600,78.400 99.431,78.400 99.225 C 78.400 98.706,58.471 78.863,58.210 79.123 M91.023 87.289 C 90.598 87.896,90.400 89.102,90.400 91.089 L 90.400 94.000 87.370 94.000 L 84.341 94.000 81.970 96.261 C 80.667 97.504,79.600 98.644,79.600 98.794 C 79.600 99.864,89.508 108.792,90.700 108.796 C 91.894 108.800,92.000 108.904,92.000 110.077 C 92.000 111.197,92.862 112.219,98.997 118.377 L 105.994 125.400 105.997 114.887 C 106.001 102.537,105.306 103.677,112.305 104.536 C 115.107 104.881,120.640 105.542,124.600 106.007 C 128.560 106.472,133.330 107.065,135.200 107.326 L 138.600 107.800 138.714 111.900 C 138.777 114.155,138.961 116.000,139.123 116.000 C 139.571 116.000,156.000 99.422,156.000 98.970 C 156.000 98.754,154.840 97.427,153.422 96.022 L 150.844 93.467 146.722 92.939 C 144.455 92.648,138.730 91.961,134.000 91.412 C 129.270 90.864,122.430 90.050,118.800 89.605 C 115.170 89.160,110.490 88.609,108.400 88.381 C 106.310 88.153,102.036 87.614,98.903 87.183 C 91.812 86.208,91.779 86.209,91.023 87.289 M154.298 96.090 L 156.787 98.579 158.592 96.808 C 159.585 95.834,160.262 94.912,160.098 94.760 C 159.821 94.503,153.860 93.600,152.440 93.600 C 152.063 93.600,152.811 94.603,154.298 96.090 M75.200 94.317 C 75.200 94.775,78.555 98.000,79.032 98.000 C 79.482 98.000,82.800 94.729,82.800 94.285 C 82.800 94.128,81.090 94.000,79.000 94.000 C 76.910 94.000,75.200 94.143,75.200 94.317 M159.270 96.882 L 157.177 98.965 162.082 103.882 L 166.988 108.800 177.894 108.800 L 188.800 108.800 188.800 119.709 L 188.800 130.618 192.212 134.009 L 195.624 137.400 199.412 133.560 L 203.200 129.720 203.200 122.660 C 203.200 118.777,203.335 115.602,203.500 115.604 C 204.275 115.613,214.271 116.852,214.987 117.028 C 215.765 117.218,230.085 103.519,229.581 103.066 C 229.358 102.866,217.803 101.401,207.000 100.202 C 203.920 99.860,199.240 99.323,196.600 99.008 C 188.878 98.087,175.524 96.477,168.400 95.609 C 164.770 95.166,161.702 94.803,161.582 94.802 C 161.462 94.801,160.421 95.737,159.270 96.882 M147.500 108.531 L 138.800 117.365 138.800 137.787 L 138.800 158.209 145.519 164.919 C 149.214 168.609,152.364 171.502,152.519 171.348 C 152.673 171.193,152.800 157.057,152.800 139.933 L 152.800 108.800 159.477 108.800 L 166.154 108.800 161.777 104.300 C 159.370 101.825,157.130 99.777,156.800 99.748 C 156.470 99.720,152.285 103.672,147.500 108.531 M223.625 110.175 C 215.803 118.007,215.981 117.334,221.600 117.808 C 223.250 117.947,227.030 118.404,230.000 118.824 C 232.970 119.244,235.535 119.590,235.700 119.594 C 235.865 119.597,236.000 131.973,236.000 147.095 L 236.000 174.591 242.597 168.003 L 249.193 161.416 249.297 139.808 L 249.400 118.200 251.125 118.000 L 252.850 117.800 246.204 111.200 C 242.549 107.570,239.484 104.531,239.393 104.447 C 239.156 104.228,232.796 103.218,231.596 103.208 C 230.823 103.202,228.983 104.810,223.625 110.175 M247.038 111.200 L 253.852 118.000 269.326 118.000 L 284.800 118.000 284.800 121.600 C 284.800 123.580,284.937 125.200,285.104 125.200 C 285.521 125.200,299.008 111.667,298.781 111.477 C 298.575 111.304,290.693 110.263,283.000 109.392 C 273.879 108.361,249.456 105.414,245.000 104.807 C 239.665 104.081,239.554 103.733,247.038 111.200 M292.432 119.116 L 284.800 126.737 284.800 137.837 L 284.800 148.936 292.300 156.458 C 296.425 160.594,299.935 163.984,300.100 163.990 C 300.265 163.995,300.400 155.840,300.400 145.867 C 300.400 135.893,300.490 127.643,300.600 127.533 C 301.021 127.112,311.149 128.838,314.200 129.850 C 326.948 134.080,334.494 142.971,333.393 152.463 C 333.025 155.632,332.898 155.712,340.766 147.834 L 347.723 140.868 346.824 138.465 C 341.422 124.019,324.828 113.970,302.732 111.763 L 300.063 111.496 292.432 119.116 M92.000 137.765 C 92.000 161.519,92.037 162.807,92.700 162.431 C 93.085 162.213,96.225 159.187,99.677 155.708 L 105.955 149.382 106.001 138.391 C 106.026 132.346,106.036 127.156,106.023 126.857 C 106.003 126.380,94.529 114.656,92.700 113.243 C 92.035 112.729,92.000 113.956,92.000 137.765 M199.291 134.509 L 196.000 137.817 199.321 141.121 C 201.147 142.938,202.767 144.299,202.921 144.146 C 203.305 143.762,203.276 131.200,202.891 131.200 C 202.721 131.200,201.101 132.689,199.291 134.509 M188.800 137.800 L 188.800 144.180 191.800 141.200 C 193.450 139.561,194.800 138.031,194.800 137.800 C 194.800 137.569,193.450 136.039,191.800 134.400 L 188.800 131.420 188.800 137.800 M192.091 141.708 L 188.800 145.017 188.800 167.908 L 188.800 190.800 174.700 190.821 C 166.945 190.832,159.340 190.988,157.800 191.168 C 156.244 191.350,154.831 191.341,154.620 191.148 C 154.411 190.956,153.916 190.800,153.520 190.800 C 152.868 190.800,152.800 190.362,152.800 186.167 C 152.800 183.331,152.649 181.585,152.410 181.667 C 152.033 181.795,140.383 193.328,128.400 205.434 L 122.600 211.294 124.600 211.035 C 125.700 210.892,129.660 210.422,133.400 209.990 C 137.140 209.557,142.090 208.939,144.400 208.615 C 146.710 208.290,148.732 208.020,148.894 208.013 C 149.056 208.006,149.752 206.885,150.440 205.521 C 156.176 194.157,166.950 188.785,172.812 194.367 C 175.318 196.753,175.883 201.316,173.973 203.744 C 173.134 204.809,173.477 205.416,174.704 205.036 C 175.434 204.810,177.478 204.561,189.600 203.217 C 193.670 202.766,198.260 202.215,199.800 201.992 C 201.340 201.769,205.570 201.237,209.200 200.809 C 212.830 200.382,219.400 199.583,223.800 199.034 C 228.200 198.485,233.420 197.842,235.400 197.605 C 245.807 196.356,252.220 195.504,252.382 195.346 C 252.481 195.250,248.881 191.483,244.382 186.976 L 236.200 178.782 236.000 180.283 L 235.800 181.784 231.800 182.255 C 229.600 182.514,224.560 183.107,220.600 183.574 C 216.640 184.041,212.410 184.590,211.200 184.794 C 209.990 184.998,207.695 185.286,206.100 185.434 L 203.200 185.703 203.200 165.798 L 203.200 145.892 199.526 142.146 C 195.130 137.663,196.061 137.718,192.091 141.708 M340.071 149.312 C 334.836 154.548,331.887 157.829,330.824 159.600 C 328.987 162.660,327.715 163.929,323.400 167.003 C 320.073 169.373,318.495 170.760,314.817 174.546 L 312.634 176.793 316.894 180.997 C 321.662 185.702,321.690 185.712,325.309 184.069 C 339.773 177.501,349.222 164.255,349.183 150.600 C 349.173 147.255,348.460 142.327,347.906 141.772 C 347.824 141.691,344.299 145.084,340.071 149.312 M98.700 157.275 L 92.000 164.067 92.000 176.260 C 92.000 184.556,92.145 188.732,92.453 189.326 C 92.702 189.807,97.836 195.131,103.862 201.158 L 114.819 212.116 117.829 211.861 C 121.801 211.526,120.193 212.860,137.400 195.623 L 152.600 180.397 152.741 176.766 L 152.882 173.136 146.156 166.368 C 142.457 162.646,139.289 159.600,139.115 159.600 C 138.942 159.600,138.800 167.149,138.800 176.376 C 138.800 186.992,138.655 193.242,138.405 193.397 C 138.003 193.646,135.781 193.938,120.200 195.791 C 115.360 196.366,110.363 196.980,109.096 197.155 C 105.741 197.617,105.955 199.299,106.084 173.440 C 106.161 158.250,106.064 150.414,105.800 150.442 C 105.580 150.465,102.385 153.540,98.700 157.275 M284.800 164.559 L 284.800 178.717 270.500 178.928 C 262.635 179.045,255.300 179.313,254.200 179.525 C 252.609 179.832,252.135 179.798,251.880 179.356 C 251.704 179.050,251.138 178.800,250.623 178.800 C 249.246 178.800,249.137 178.121,249.238 170.098 C 249.288 166.082,249.252 162.718,249.157 162.624 C 248.624 162.090,236.000 175.544,236.000 176.645 C 236.000 178.324,252.829 195.200,254.503 195.200 C 255.510 195.200,264.837 194.164,272.600 193.191 C 274.360 192.970,278.860 192.439,282.600 192.012 C 286.340 191.584,290.480 191.053,291.800 190.833 C 293.120 190.613,295.197 190.327,296.416 190.198 L 298.631 189.964 305.116 183.460 C 312.581 175.973,312.063 176.911,309.900 174.802 L 308.200 173.144 305.200 173.386 C 303.550 173.520,301.840 173.667,301.400 173.714 C 300.651 173.795,300.593 173.529,300.487 169.548 L 300.374 165.297 292.926 157.848 C 288.829 153.752,285.325 150.400,285.139 150.400 C 284.952 150.400,284.800 156.771,284.800 164.559 M58.000 176.533 C 58.000 187.387,58.117 196.384,58.260 196.527 C 58.403 196.670,61.508 193.786,65.160 190.119 L 71.800 183.451 72.017 177.225 C 72.137 173.801,72.107 170.735,71.952 170.412 C 71.572 169.620,58.738 156.800,58.325 156.800 C 58.146 156.800,58.000 165.680,58.000 176.533 M315.600 171.024 C 314.830 171.325,313.071 171.892,311.691 172.285 L 309.181 173.000 310.420 174.500 C 312.046 176.470,312.208 176.433,315.116 173.455 C 318.272 170.222,318.324 169.961,315.600 171.024 M305.677 183.476 C 302.309 186.892,299.613 189.747,299.686 189.820 C 300.284 190.418,319.775 186.759,320.649 185.884 C 320.837 185.696,312.424 177.194,312.087 177.233 C 311.929 177.251,309.045 180.061,305.677 183.476 M64.794 191.206 L 58.000 198.013 58.000 215.483 L 58.000 232.953 65.687 240.677 C 69.914 244.924,73.514 248.400,73.687 248.400 C 73.859 248.400,74.000 239.130,74.000 227.800 L 74.000 207.200 82.200 207.200 L 90.400 207.200 90.400 210.976 C 90.400 213.053,90.535 214.832,90.700 214.928 C 90.972 215.087,100.739 213.978,110.400 212.691 L 114.200 212.185 103.480 201.492 C 93.438 191.477,92.000 190.187,92.000 191.200 C 92.000 191.456,88.384 191.600,81.951 191.600 L 71.902 191.600 72.074 188.000 C 72.169 186.020,72.098 184.400,71.917 184.400 C 71.735 184.400,68.530 187.463,64.794 191.206 M166.397 194.374 C 163.212 195.343,159.990 198.368,157.108 203.096 C 154.459 207.442,154.501 207.605,158.100 206.987 C 159.695 206.713,162.466 206.362,164.258 206.206 C 168.831 205.810,170.800 203.742,170.800 199.334 C 170.800 196.672,168.799 193.476,167.481 194.034 C 167.437 194.053,166.949 194.206,166.397 194.374 M58.195 234.338 C 57.872 234.661,57.976 274.400,58.300 274.395 C 58.465 274.392,62.065 270.906,66.300 266.650 L 74.000 258.910 74.000 254.355 L 73.999 249.800 66.195 241.972 C 61.902 237.666,58.302 234.231,58.195 234.338 M65.853 267.864 L 58.000 275.727 58.000 293.167 L 58.000 310.608 66.000 318.600 L 74.000 326.592 74.000 293.296 C 74.000 274.983,73.934 260.000,73.853 260.000 C 73.772 260.000,70.172 263.539,65.853 267.864 M58.000 331.776 C 58.000 342.653,58.149 351.645,58.332 351.758 C 58.514 351.871,62.114 348.496,66.332 344.258 L 74.000 336.553 74.000 331.973 L 74.000 327.392 66.296 319.696 C 62.059 315.463,58.459 312.000,58.296 312.000 C 58.133 312.000,58.000 320.899,58.000 331.776 M65.696 345.704 L 58.000 353.408 58.000 370.808 L 58.000 388.208 66.000 396.200 L 74.000 404.192 74.000 371.096 C 74.000 352.893,73.863 338.000,73.696 338.000 C 73.529 338.000,69.929 341.467,65.696 345.704 M58.093 399.700 L 58.200 409.800 66.000 409.800 L 73.800 409.800 73.922 407.445 L 74.043 405.090 66.335 397.345 C 62.096 393.085,58.483 389.600,58.307 389.600 C 58.130 389.600,58.034 394.145,58.093 399.700 " stroke="none" fill="#5575fa" fill-rule="evenodd"></path><path id="path1" d="M0.000 213.200 L 0.000 426.400 200.000 426.400 L 400.000 426.400 400.000 213.200 L 400.000 0.000 200.000 0.000 L 0.000 0.000 0.000 213.200 M70.851 21.451 C 92.490 26.226,97.440 54.588,78.654 66.158 C 77.084 67.125,75.395 68.037,74.900 68.185 L 74.000 68.454 74.000 81.227 L 74.000 94.000 82.000 94.000 L 90.000 94.000 90.000 90.024 C 90.000 85.195,89.341 85.543,96.800 86.437 C 100.210 86.846,107.590 87.732,113.200 88.406 C 118.810 89.081,126.280 89.976,129.800 90.397 C 133.320 90.817,141.960 91.875,149.000 92.748 C 156.040 93.620,165.040 94.710,169.000 95.170 C 183.822 96.890,201.598 99.036,212.400 100.407 C 223.595 101.829,234.905 103.207,241.800 103.990 C 256.297 105.636,276.034 108.010,288.400 109.594 C 291.810 110.031,296.760 110.655,299.400 110.980 C 314.282 112.814,318.214 113.645,324.115 116.202 C 365.603 134.181,354.239 183.767,307.335 189.418 C 304.511 189.758,298.510 190.478,294.000 191.017 C 289.490 191.556,283.550 192.267,280.800 192.596 C 278.050 192.925,273.010 193.553,269.600 193.990 C 261.002 195.092,253.817 195.983,248.400 196.618 C 238.965 197.723,229.549 198.818,221.200 199.781 C 216.470 200.326,210.530 201.043,208.000 201.374 C 189.494 203.796,174.333 205.599,172.387 205.610 C 171.404 205.615,169.880 205.785,169.000 205.987 C 166.848 206.482,158.241 207.513,153.829 207.805 C 151.865 207.934,150.081 208.150,149.865 208.283 C 149.649 208.417,146.666 208.850,143.236 209.247 C 139.806 209.643,133.400 210.415,129.000 210.963 C 124.600 211.510,118.030 212.319,114.400 212.760 C 110.770 213.202,104.083 214.021,99.540 214.582 C 94.998 215.142,90.993 215.600,90.640 215.600 C 90.096 215.600,90.000 215.000,90.000 211.592 L 90.000 207.583 82.100 207.692 L 74.200 207.800 74.099 308.900 L 73.998 410.000 65.799 410.000 L 57.600 410.000 57.600 239.229 L 57.600 68.459 55.434 67.467 C 42.591 61.587,37.620 45.898,44.617 33.330 C 49.673 24.251,60.769 19.226,70.851 21.451 M62.200 38.335 C 55.019 42.714,57.891 53.363,66.200 53.167 C 73.926 52.986,76.550 42.535,69.854 38.611 C 67.682 37.338,64.049 37.207,62.200 38.335 M106.788 115.100 C 106.744 152.245,106.838 196.571,106.960 196.693 C 107.039 196.773,112.301 196.209,118.652 195.441 C 125.003 194.674,131.640 193.920,133.400 193.766 C 135.160 193.612,137.005 193.337,137.500 193.153 L 138.400 192.820 138.400 150.618 L 138.400 108.415 137.500 108.209 C 137.005 108.096,132.730 107.547,128.000 106.989 C 123.270 106.432,116.643 105.621,113.272 105.188 C 109.902 104.755,107.067 104.400,106.972 104.400 C 106.878 104.400,106.794 109.215,106.788 115.100 M203.600 150.814 L 203.600 185.228 205.500 185.011 C 206.545 184.892,210.370 184.423,214.000 183.970 C 217.630 183.516,222.220 182.978,224.200 182.775 C 227.784 182.407,232.987 181.709,234.700 181.365 L 235.600 181.185 235.600 150.636 L 235.600 120.087 234.700 119.873 C 234.205 119.756,232.090 119.466,230.000 119.230 C 227.910 118.994,223.860 118.524,221.000 118.186 C 209.484 116.823,205.750 116.415,204.700 116.408 L 203.600 116.400 203.600 150.814 M300.800 150.777 L 300.800 173.664 301.900 173.453 C 302.885 173.264,306.774 172.692,307.800 172.584 C 313.839 171.952,322.045 168.156,326.748 163.821 C 341.522 150.203,328.845 130.431,303.892 128.170 L 300.800 127.890 300.800 150.777 M252.000 178.809 C 252.000 179.183,258.317 178.937,258.767 178.545 C 258.858 178.465,257.373 178.400,255.467 178.400 C 253.369 178.400,252.000 178.562,252.000 178.809 " stroke="none" fill="#fff" fill-rule="evenodd"></path><path id="path2" d="M72.498 150.300 L 72.600 191.400 82.125 191.400 L 91.650 191.400 91.635 151.000 C 91.627 128.780,91.616 110.285,91.610 109.900 C 91.601 109.253,90.872 109.200,81.998 109.200 L 72.396 109.200 72.498 150.300 M152.800 149.753 L 152.800 190.307 153.700 190.468 C 154.195 190.557,162.295 190.558,171.700 190.470 L 188.800 190.310 188.800 149.755 L 188.800 109.200 170.800 109.200 L 152.800 109.200 152.800 149.753 M249.784 118.900 C 249.679 119.175,249.640 132.630,249.697 148.800 L 249.800 178.200 267.100 178.304 L 284.400 178.408 284.428 164.904 C 284.458 149.938,284.455 127.819,284.422 122.100 L 284.400 118.400 267.187 118.400 C 253.786 118.400,249.933 118.511,249.784 118.900 " stroke="none" fill="#fadb5d" fill-rule="evenodd"></path><path id="path3" d="M64.500 21.091 C 65.325 21.178,66.675 21.178,67.500 21.091 C 68.325 21.005,67.650 20.934,66.000 20.934 C 64.350 20.934,63.675 21.005,64.500 21.091 M76.833 23.731 C 77.513 24.263,80.000 25.625,80.000 25.465 C 80.000 25.206,77.405 23.600,76.986 23.600 C 76.810 23.600,76.742 23.659,76.833 23.731 M49.276 27.500 L 46.931 29.800 49.166 27.830 C 50.395 26.747,51.571 25.712,51.780 25.530 C 51.989 25.349,52.039 25.200,51.891 25.200 C 51.742 25.200,50.566 26.235,49.276 27.500 M65.300 37.476 C 65.685 37.576,66.315 37.576,66.700 37.476 C 67.085 37.375,66.770 37.293,66.000 37.293 C 65.230 37.293,64.915 37.375,65.300 37.476 M60.660 39.300 C 59.518 40.447,59.428 40.594,60.383 39.752 C 61.162 39.066,62.160 38.306,62.600 38.064 C 63.040 37.822,63.165 37.619,62.877 37.612 C 62.589 37.605,61.591 38.365,60.660 39.300 M41.693 41.600 C 41.693 42.370,41.775 42.685,41.876 42.300 C 41.976 41.915,41.976 41.285,41.876 40.900 C 41.775 40.515,41.693 40.830,41.693 41.600 M72.655 41.400 C 73.580 42.979,73.600 43.003,73.600 42.511 C 73.600 42.279,73.229 41.664,72.776 41.144 L 71.953 40.200 72.655 41.400 M58.154 42.177 C 58.032 42.494,58.003 43.079,58.089 43.477 C 58.187 43.928,58.324 43.712,58.454 42.900 C 58.671 41.538,58.530 41.196,58.154 42.177 M90.120 45.600 C 90.120 46.810,90.195 47.305,90.287 46.700 C 90.378 46.095,90.378 45.105,90.287 44.500 C 90.195 43.895,90.120 44.390,90.120 45.600 M41.309 45.600 C 41.309 46.590,41.387 46.995,41.482 46.500 C 41.578 46.005,41.578 45.195,41.482 44.700 C 41.387 44.205,41.309 44.610,41.309 45.600 M41.693 49.200 C 41.693 49.970,41.775 50.285,41.876 49.900 C 41.976 49.515,41.976 48.885,41.876 48.500 C 41.775 48.115,41.693 48.430,41.693 49.200 M42.056 51.200 C 42.056 51.530,42.211 52.160,42.400 52.600 C 42.617 53.104,42.744 53.178,42.744 52.800 C 42.744 52.470,42.589 51.840,42.400 51.400 C 42.183 50.896,42.056 50.822,42.056 51.200 M65.300 53.476 C 65.685 53.576,66.315 53.576,66.700 53.476 C 67.085 53.375,66.770 53.293,66.000 53.293 C 65.230 53.293,64.915 53.375,65.300 53.476 M45.564 59.133 C 45.780 59.536,46.271 60.121,46.655 60.433 C 47.087 60.784,46.990 60.504,46.401 59.700 C 45.351 58.265,44.957 57.998,45.564 59.133 M82.987 62.500 L 80.600 65.000 83.100 62.613 C 85.422 60.395,85.783 60.000,85.487 60.000 C 85.426 60.000,84.301 61.125,82.987 62.500 M48.200 62.348 C 48.860 63.077,49.940 64.046,50.600 64.501 C 52.018 65.480,51.698 65.134,49.000 62.774 C 47.522 61.481,47.313 61.370,48.200 62.348 M57.600 239.120 L 57.800 410.200 57.900 239.420 C 57.956 145.492,57.866 68.506,57.700 68.340 C 57.535 68.175,57.490 145.026,57.600 239.120 M90.227 85.956 C 90.139 86.098,91.177 86.249,92.534 86.291 C 95.306 86.377,95.180 86.161,92.294 85.882 C 91.245 85.780,90.315 85.813,90.227 85.956 M96.100 86.676 C 96.485 86.776,97.115 86.776,97.500 86.676 C 97.885 86.575,97.570 86.493,96.800 86.493 C 96.030 86.493,95.715 86.575,96.100 86.676 M103.300 87.476 C 103.685 87.576,104.315 87.576,104.700 87.476 C 105.085 87.375,104.770 87.293,104.000 87.293 C 103.230 87.293,102.915 87.375,103.300 87.476 M106.305 87.883 C 106.802 87.979,107.522 87.975,107.905 87.875 C 108.287 87.775,107.880 87.696,107.000 87.701 C 106.120 87.705,105.807 87.787,106.305 87.883 M109.505 88.283 C 110.002 88.379,110.722 88.375,111.105 88.275 C 111.487 88.175,111.080 88.096,110.200 88.101 C 109.320 88.105,109.007 88.187,109.505 88.283 M113.105 88.683 C 113.602 88.779,114.322 88.775,114.705 88.675 C 115.087 88.575,114.680 88.496,113.800 88.501 C 112.920 88.505,112.607 88.587,113.105 88.683 M116.500 89.076 C 116.885 89.176,117.515 89.176,117.900 89.076 C 118.285 88.975,117.970 88.893,117.200 88.893 C 116.430 88.893,116.115 88.975,116.500 89.076 M119.905 89.483 C 120.402 89.579,121.122 89.575,121.505 89.475 C 121.887 89.375,121.480 89.296,120.600 89.301 C 119.720 89.305,119.407 89.387,119.905 89.483 M133.300 91.076 C 133.685 91.176,134.315 91.176,134.700 91.076 C 135.085 90.975,134.770 90.893,134.000 90.893 C 133.230 90.893,132.915 90.975,133.300 91.076 M136.100 91.476 C 136.485 91.576,137.115 91.576,137.500 91.476 C 137.885 91.375,137.570 91.293,136.800 91.293 C 136.030 91.293,135.715 91.375,136.100 91.476 M150.000 93.187 C 150.991 93.517,153.887 93.735,153.567 93.454 C 153.475 93.374,152.410 93.206,151.200 93.081 C 149.780 92.934,149.354 92.971,150.000 93.187 M165.905 95.083 C 166.402 95.179,167.122 95.175,167.505 95.075 C 167.887 94.975,167.480 94.896,166.600 94.901 C 165.720 94.905,165.407 94.987,165.905 95.083 M169.105 95.483 C 169.602 95.579,170.322 95.575,170.705 95.475 C 171.087 95.375,170.680 95.296,169.800 95.301 C 168.920 95.305,168.607 95.387,169.105 95.483 M176.100 96.276 C 176.485 96.376,177.115 96.376,177.500 96.276 C 177.885 96.175,177.570 96.093,176.800 96.093 C 176.030 96.093,175.715 96.175,176.100 96.276 M179.300 96.676 C 179.685 96.776,180.315 96.776,180.700 96.676 C 181.085 96.575,180.770 96.493,180.000 96.493 C 179.230 96.493,178.915 96.575,179.300 96.676 M182.705 97.083 C 183.202 97.179,183.922 97.175,184.305 97.075 C 184.687 96.975,184.280 96.896,183.400 96.901 C 182.520 96.905,182.207 96.987,182.705 97.083 M185.700 97.476 C 186.085 97.576,186.715 97.576,187.100 97.476 C 187.485 97.375,187.170 97.293,186.400 97.293 C 185.630 97.293,185.315 97.375,185.700 97.476 M189.300 97.876 C 189.685 97.976,190.315 97.976,190.700 97.876 C 191.085 97.775,190.770 97.693,190.000 97.693 C 189.230 97.693,188.915 97.775,189.300 97.876 M192.705 98.283 C 193.202 98.379,193.922 98.375,194.305 98.275 C 194.687 98.175,194.280 98.096,193.400 98.101 C 192.520 98.105,192.207 98.187,192.705 98.283 M195.700 98.676 C 196.085 98.776,196.715 98.776,197.100 98.676 C 197.485 98.575,197.170 98.493,196.400 98.493 C 195.630 98.493,195.315 98.575,195.700 98.676 M209.105 100.283 C 209.602 100.379,210.322 100.375,210.705 100.275 C 211.087 100.175,210.680 100.096,209.800 100.101 C 208.920 100.105,208.607 100.187,209.105 100.283 M225.300 102.276 C 225.685 102.376,226.315 102.376,226.700 102.276 C 227.085 102.175,226.770 102.093,226.000 102.093 C 225.230 102.093,224.915 102.175,225.300 102.276 M239.000 104.020 C 239.778 104.335,244.300 104.547,243.967 104.253 C 243.875 104.172,242.540 104.014,241.000 103.901 C 239.398 103.784,238.542 103.835,239.000 104.020 M106.575 115.000 C 106.575 120.940,106.631 123.426,106.699 120.524 C 106.767 117.622,106.767 112.762,106.699 109.724 C 106.631 106.686,106.575 109.060,106.575 115.000 M244.900 104.676 C 245.285 104.776,245.915 104.776,246.300 104.676 C 246.685 104.575,246.370 104.493,245.600 104.493 C 244.830 104.493,244.515 104.575,244.900 104.676 M115.300 105.476 C 115.685 105.576,116.315 105.576,116.700 105.476 C 117.085 105.375,116.770 105.293,116.000 105.293 C 115.230 105.293,114.915 105.375,115.300 105.476 M252.100 105.476 C 252.485 105.576,253.115 105.576,253.500 105.476 C 253.885 105.375,253.570 105.293,252.800 105.293 C 252.030 105.293,251.715 105.375,252.100 105.476 M118.705 105.883 C 119.202 105.979,119.922 105.975,120.305 105.875 C 120.687 105.775,120.280 105.696,119.400 105.701 C 118.520 105.705,118.207 105.787,118.705 105.883 M255.505 105.883 C 256.002 105.979,256.722 105.975,257.105 105.875 C 257.487 105.775,257.080 105.696,256.200 105.701 C 255.320 105.705,255.007 105.787,255.505 105.883 M121.905 106.283 C 122.402 106.379,123.122 106.375,123.505 106.275 C 123.887 106.175,123.480 106.096,122.600 106.101 C 121.720 106.105,121.407 106.187,121.905 106.283 M258.705 106.283 C 259.202 106.379,259.922 106.375,260.305 106.275 C 260.687 106.175,260.280 106.096,259.400 106.101 C 258.520 106.105,258.207 106.187,258.705 106.283 M125.300 106.676 C 125.685 106.776,126.315 106.776,126.700 106.676 C 127.085 106.575,126.770 106.493,126.000 106.493 C 125.230 106.493,124.915 106.575,125.300 106.676 M262.100 106.676 C 262.485 106.776,263.115 106.776,263.500 106.676 C 263.885 106.575,263.570 106.493,262.800 106.493 C 262.030 106.493,261.715 106.575,262.100 106.676 M128.705 107.083 C 129.202 107.179,129.922 107.175,130.305 107.075 C 130.687 106.975,130.280 106.896,129.400 106.901 C 128.520 106.905,128.207 106.987,128.705 107.083 M265.505 107.083 C 266.002 107.179,266.722 107.175,267.105 107.075 C 267.487 106.975,267.080 106.896,266.200 106.901 C 265.320 106.905,265.007 106.987,265.505 107.083 M131.905 107.483 C 132.402 107.579,133.122 107.575,133.505 107.475 C 133.887 107.375,133.480 107.296,132.600 107.301 C 131.720 107.305,131.407 107.387,131.905 107.483 M268.500 107.476 C 268.885 107.576,269.515 107.576,269.900 107.476 C 270.285 107.375,269.970 107.293,269.200 107.293 C 268.430 107.293,268.115 107.375,268.500 107.476 M135.300 107.876 C 135.685 107.976,136.315 107.976,136.700 107.876 C 137.085 107.775,136.770 107.693,136.000 107.693 C 135.230 107.693,134.915 107.775,135.300 107.876 M271.700 107.876 C 272.085 107.976,272.715 107.976,273.100 107.876 C 273.485 107.775,273.170 107.693,272.400 107.693 C 271.630 107.693,271.315 107.775,271.700 107.876 M82.173 109.096 C 91.166 109.210,91.554 109.247,91.726 110.013 C 91.873 110.665,91.897 110.646,91.853 109.906 L 91.800 109.000 82.300 108.989 L 72.800 108.978 82.173 109.096 M155.718 109.098 C 157.433 109.173,160.133 109.172,161.718 109.097 C 163.303 109.021,161.900 108.959,158.600 108.960 C 155.300 108.961,154.003 109.022,155.718 109.098 M171.324 109.099 C 174.583 109.167,179.803 109.166,182.924 109.099 C 186.046 109.031,183.380 108.976,177.000 108.977 C 170.620 108.977,168.066 109.032,171.324 109.099 M282.100 109.076 C 282.485 109.176,283.115 109.176,283.500 109.076 C 283.885 108.975,283.570 108.893,282.800 108.893 C 282.030 108.893,281.715 108.975,282.100 109.076 M285.300 109.476 C 285.685 109.576,286.315 109.576,286.700 109.476 C 287.085 109.375,286.770 109.293,286.000 109.293 C 285.230 109.293,284.915 109.375,285.300 109.476 M91.788 138.600 C 91.788 152.240,91.838 157.878,91.900 151.129 C 91.961 144.380,91.961 133.220,91.900 126.329 C 91.838 119.438,91.788 124.960,91.788 138.600 M320.592 115.162 C 322.348 115.815,323.846 116.288,323.920 116.213 C 324.099 116.035,319.941 114.485,318.516 114.200 C 317.902 114.077,318.837 114.510,320.592 115.162 M203.384 116.500 C 202.892 117.792,203.407 185.335,203.910 185.437 C 204.191 185.494,204.236 185.449,204.010 185.337 C 203.735 185.200,203.600 173.845,203.600 150.791 L 203.600 116.448 205.100 116.291 L 206.600 116.134 205.087 116.067 C 204.191 116.027,203.497 116.204,203.384 116.500 M207.905 116.683 C 208.402 116.779,209.122 116.775,209.505 116.675 C 209.887 116.575,209.480 116.496,208.600 116.501 C 207.720 116.505,207.407 116.587,207.905 116.683 M324.433 116.552 C 324.841 116.924,328.800 118.793,328.800 118.613 C 328.800 118.388,324.980 116.400,324.547 116.400 C 324.393 116.400,324.342 116.468,324.433 116.552 M211.300 117.076 C 211.685 117.176,212.315 117.176,212.700 117.076 C 213.085 116.975,212.770 116.893,212.000 116.893 C 211.230 116.893,210.915 116.975,211.300 117.076 M217.900 117.882 C 218.395 117.978,219.205 117.978,219.700 117.882 C 220.195 117.787,219.790 117.709,218.800 117.709 C 217.810 117.709,217.405 117.787,217.900 117.882 M221.505 118.283 C 222.002 118.379,222.722 118.375,223.105 118.275 C 223.487 118.175,223.080 118.096,222.200 118.101 C 221.320 118.105,221.007 118.187,221.505 118.283 M260.500 118.300 C 264.845 118.364,271.955 118.364,276.300 118.300 C 280.645 118.235,277.090 118.182,268.400 118.182 C 259.710 118.182,256.155 118.235,260.500 118.300 M284.544 122.400 C 284.544 124.490,284.612 125.345,284.694 124.300 C 284.776 123.255,284.776 121.545,284.694 120.500 C 284.612 119.455,284.544 120.310,284.544 122.400 M234.897 119.852 C 235.551 120.045,235.601 121.839,235.701 148.229 L 235.808 176.400 235.804 148.105 C 235.800 120.107,235.792 119.810,235.000 119.728 C 234.383 119.665,234.360 119.693,234.897 119.852 M338.600 126.000 C 339.459 126.880,340.252 127.600,340.362 127.600 C 340.472 127.600,339.859 126.880,339.000 126.000 C 338.141 125.120,337.348 124.400,337.238 124.400 C 337.128 124.400,337.741 125.120,338.600 126.000 M106.576 137.800 C 106.576 143.960,106.632 146.424,106.699 143.276 C 106.767 140.127,106.767 135.087,106.699 132.076 C 106.631 129.064,106.576 131.640,106.576 137.800 M284.573 138.600 C 284.573 144.100,284.630 146.405,284.699 143.723 C 284.768 141.041,284.768 136.541,284.699 133.723 C 284.630 130.905,284.574 133.100,284.573 138.600 M319.200 132.179 C 319.200 132.289,319.740 132.659,320.400 133.000 C 321.060 133.341,321.600 133.531,321.600 133.421 C 321.600 133.311,321.060 132.941,320.400 132.600 C 319.740 132.259,319.200 132.069,319.200 132.179 M344.439 133.376 C 344.901 134.159,345.356 134.800,345.450 134.800 C 345.734 134.800,344.436 132.469,344.002 132.201 C 343.780 132.064,343.977 132.593,344.439 133.376 M328.274 139.040 C 329.333 140.382,330.428 141.822,330.706 142.240 C 330.984 142.658,330.952 142.460,330.634 141.800 C 330.316 141.140,329.222 139.700,328.202 138.600 L 326.348 136.600 328.274 139.040 M349.709 150.800 C 349.709 151.790,349.787 152.195,349.882 151.700 C 349.978 151.205,349.978 150.395,349.882 149.900 C 349.787 149.405,349.709 149.810,349.709 150.800 M106.595 173.395 C 106.600 196.693,106.610 196.990,107.400 197.072 C 108.016 197.135,108.039 197.107,107.503 196.948 C 106.853 196.756,106.799 195.184,106.698 173.271 L 106.590 149.800 106.595 173.395 M284.579 164.800 C 284.579 172.170,284.633 175.185,284.699 171.500 C 284.765 167.815,284.765 161.785,284.699 158.100 C 284.633 154.415,284.579 157.430,284.579 164.800 M332.446 155.067 C 332.421 155.324,332.284 155.864,332.141 156.267 C 331.940 156.836,331.994 156.897,332.379 156.542 C 332.652 156.291,332.789 155.751,332.684 155.342 C 332.579 154.934,332.472 154.810,332.446 155.067 M330.348 159.500 C 329.843 160.325,328.613 161.915,327.615 163.034 C 326.009 164.834,326.053 164.808,328.000 162.804 C 329.210 161.559,330.525 159.968,330.923 159.270 C 331.936 157.489,331.461 157.679,330.348 159.500 M346.278 164.605 C 345.912 165.372,345.695 166.000,345.796 166.000 C 346.070 166.000,347.284 163.551,347.101 163.368 C 347.014 163.281,346.644 163.838,346.278 164.605 M91.777 177.400 C 91.777 183.780,91.832 186.334,91.899 183.076 C 91.967 179.817,91.966 174.597,91.899 171.476 C 91.831 168.354,91.776 171.020,91.777 177.400 M318.600 169.414 C 317.595 169.898,317.563 169.953,318.400 169.751 C 318.950 169.619,319.571 169.350,319.780 169.155 C 320.298 168.671,320.014 168.733,318.600 169.414 M315.400 170.614 C 314.400 171.096,314.366 171.151,315.200 170.948 C 316.333 170.671,317.607 170.021,317.000 170.030 C 316.780 170.033,316.060 170.296,315.400 170.614 M339.400 174.160 C 337.640 175.983,335.480 178.058,334.600 178.772 C 333.405 179.741,333.336 179.846,334.329 179.187 C 336.142 177.983,340.135 174.249,341.636 172.355 C 343.432 170.087,342.982 170.450,339.400 174.160 M260.100 178.691 C 260.925 178.778,262.275 178.778,263.100 178.691 C 263.925 178.605,263.250 178.534,261.600 178.534 C 259.950 178.534,259.275 178.605,260.100 178.691 M255.105 179.083 C 255.602 179.179,256.322 179.175,256.705 179.075 C 257.087 178.975,256.680 178.896,255.800 178.901 C 254.920 178.905,254.607 178.987,255.105 179.083 M232.100 181.876 C 232.485 181.976,233.115 181.976,233.500 181.876 C 233.885 181.775,233.570 181.693,232.800 181.693 C 232.030 181.693,231.715 181.775,232.100 181.876 M219.300 183.476 C 219.685 183.576,220.315 183.576,220.700 183.476 C 221.085 183.375,220.770 183.293,220.000 183.293 C 219.230 183.293,218.915 183.375,219.300 183.476 M216.100 183.876 C 216.485 183.976,217.115 183.976,217.500 183.876 C 217.885 183.775,217.570 183.693,216.800 183.693 C 216.030 183.693,215.715 183.775,216.100 183.876 M205.700 185.076 C 206.085 185.176,206.715 185.176,207.100 185.076 C 207.485 184.975,207.170 184.893,206.400 184.893 C 205.630 184.893,205.315 184.975,205.700 185.076 M318.000 187.000 C 317.230 187.297,316.870 187.539,317.200 187.539 C 317.530 187.539,318.430 187.297,319.200 187.000 C 319.970 186.703,320.330 186.461,320.000 186.461 C 319.670 186.461,318.770 186.703,318.000 187.000 M312.400 188.400 C 311.608 188.654,311.567 188.720,312.200 188.720 C 312.640 188.720,313.450 188.576,314.000 188.400 C 314.792 188.146,314.833 188.080,314.200 188.080 C 313.760 188.080,312.950 188.224,312.400 188.400 M305.700 189.476 C 306.085 189.576,306.715 189.576,307.100 189.476 C 307.485 189.375,307.170 189.293,306.400 189.293 C 305.630 189.293,305.315 189.375,305.700 189.476 M298.700 190.282 C 299.195 190.378,300.005 190.378,300.500 190.282 C 300.995 190.187,300.590 190.109,299.600 190.109 C 298.610 190.109,298.205 190.187,298.700 190.282 M166.700 190.699 C 170.715 190.765,177.285 190.765,181.300 190.699 C 185.315 190.634,182.030 190.581,174.000 190.581 C 165.970 190.581,162.685 190.634,166.700 190.699 M295.700 190.676 C 296.085 190.776,296.715 190.776,297.100 190.676 C 297.485 190.575,297.170 190.493,296.400 190.493 C 295.630 190.493,295.315 190.575,295.700 190.676 M282.705 192.283 C 283.202 192.379,283.922 192.375,284.305 192.275 C 284.687 192.175,284.280 192.096,283.400 192.101 C 282.520 192.105,282.207 192.187,282.705 192.283 M164.019 192.869 C 159.531 194.157,154.064 199.505,151.007 205.600 C 150.400 206.810,149.860 207.850,149.807 207.911 C 149.754 207.973,148.921 208.178,147.955 208.368 C 146.988 208.558,146.628 208.732,147.154 208.756 C 147.678 208.780,148.758 208.627,149.554 208.415 C 150.349 208.203,151.851 207.923,152.892 207.792 C 153.933 207.661,154.755 207.429,154.718 207.277 C 153.974 204.184,162.640 194.592,166.901 193.792 C 172.226 192.793,172.762 204.328,167.467 205.993 C 166.295 206.361,166.320 206.371,167.800 206.131 C 168.680 205.988,170.840 205.748,172.600 205.598 C 174.360 205.447,175.110 205.296,174.267 205.262 C 173.423 205.228,172.803 205.065,172.887 204.900 C 176.982 196.910,172.260 190.503,164.019 192.869 M129.505 194.283 C 130.002 194.379,130.722 194.375,131.105 194.275 C 131.487 194.175,131.080 194.096,130.200 194.101 C 129.320 194.105,129.007 194.187,129.505 194.283 M266.305 194.283 C 266.802 194.379,267.522 194.375,267.905 194.275 C 268.287 194.175,267.880 194.096,267.000 194.101 C 266.120 194.105,265.807 194.187,266.305 194.283 M126.305 194.683 C 126.802 194.779,127.522 194.775,127.905 194.675 C 128.287 194.575,127.880 194.496,127.000 194.501 C 126.120 194.505,125.807 194.587,126.305 194.683 M263.300 194.676 C 263.685 194.776,264.315 194.776,264.700 194.676 C 265.085 194.575,264.770 194.493,264.000 194.493 C 263.230 194.493,262.915 194.575,263.300 194.676 M122.900 195.076 C 123.285 195.176,123.915 195.176,124.300 195.076 C 124.685 194.975,124.370 194.893,123.600 194.893 C 122.830 194.893,122.515 194.975,122.900 195.076 M119.700 195.476 C 120.085 195.576,120.715 195.576,121.100 195.476 C 121.485 195.375,121.170 195.293,120.400 195.293 C 119.630 195.293,119.315 195.375,119.700 195.476 M116.100 195.876 C 116.485 195.976,117.115 195.976,117.500 195.876 C 117.885 195.775,117.570 195.693,116.800 195.693 C 116.030 195.693,115.715 195.775,116.100 195.876 M250.800 196.000 C 249.151 196.256,249.117 196.283,250.400 196.317 C 251.170 196.337,252.520 196.205,253.400 196.023 C 255.466 195.596,253.512 195.578,250.800 196.000 M112.900 196.276 C 113.285 196.376,113.915 196.376,114.300 196.276 C 114.685 196.175,114.370 196.093,113.600 196.093 C 112.830 196.093,112.515 196.175,112.900 196.276 M109.505 196.683 C 110.002 196.779,110.722 196.775,111.105 196.675 C 111.487 196.575,111.080 196.496,110.200 196.501 C 109.320 196.505,109.007 196.587,109.505 196.683 M246.305 196.683 C 246.802 196.779,247.522 196.775,247.905 196.675 C 248.287 196.575,247.880 196.496,247.000 196.501 C 246.120 196.505,245.807 196.587,246.305 196.683 M242.900 197.076 C 243.285 197.176,243.915 197.176,244.300 197.076 C 244.685 196.975,244.370 196.893,243.600 196.893 C 242.830 196.893,242.515 196.975,242.900 197.076 M239.905 197.483 C 240.402 197.579,241.122 197.575,241.505 197.475 C 241.887 197.375,241.480 197.296,240.600 197.301 C 239.720 197.305,239.407 197.387,239.905 197.483 M236.305 197.883 C 236.802 197.979,237.522 197.975,237.905 197.875 C 238.287 197.775,237.880 197.696,237.000 197.701 C 236.120 197.705,235.807 197.787,236.305 197.883 M232.900 198.276 C 233.285 198.376,233.915 198.376,234.300 198.276 C 234.685 198.175,234.370 198.093,233.600 198.093 C 232.830 198.093,232.515 198.175,232.900 198.276 M226.305 199.083 C 226.802 199.179,227.522 199.175,227.905 199.075 C 228.287 198.975,227.880 198.896,227.000 198.901 C 226.120 198.905,225.807 198.987,226.305 199.083 M222.705 199.483 C 223.202 199.579,223.922 199.575,224.305 199.475 C 224.687 199.375,224.280 199.296,223.400 199.301 C 222.520 199.305,222.207 199.387,222.705 199.483 M206.500 201.476 C 206.885 201.576,207.515 201.576,207.900 201.476 C 208.285 201.375,207.970 201.293,207.200 201.293 C 206.430 201.293,206.115 201.375,206.500 201.476 M193.300 203.076 C 193.685 203.176,194.315 203.176,194.700 203.076 C 195.085 202.975,194.770 202.893,194.000 202.893 C 193.230 202.893,192.915 202.975,193.300 203.076 M190.500 203.476 C 190.885 203.576,191.515 203.576,191.900 203.476 C 192.285 203.375,191.970 203.293,191.200 203.293 C 190.430 203.293,190.115 203.375,190.500 203.476 M180.100 204.676 C 180.485 204.776,181.115 204.776,181.500 204.676 C 181.885 204.575,181.570 204.493,180.800 204.493 C 180.030 204.493,179.715 204.575,180.100 204.676 M177.105 205.083 C 177.602 205.179,178.322 205.175,178.705 205.075 C 179.087 204.975,178.680 204.896,177.800 204.901 C 176.920 204.905,176.607 204.987,177.105 205.083 M163.505 206.683 C 164.002 206.779,164.722 206.775,165.105 206.675 C 165.487 206.575,165.080 206.496,164.200 206.501 C 163.320 206.505,163.007 206.587,163.505 206.683 M73.999 207.500 C 73.999 207.665,76.384 207.753,79.299 207.696 C 89.253 207.501,90.205 207.359,82.100 207.279 C 77.645 207.236,74.000 207.335,73.999 207.500 M133.700 210.276 C 134.085 210.376,134.715 210.376,135.100 210.276 C 135.485 210.175,135.170 210.093,134.400 210.093 C 133.630 210.093,133.315 210.175,133.700 210.276 M130.500 210.676 C 130.885 210.776,131.515 210.776,131.900 210.676 C 132.285 210.575,131.970 210.493,131.200 210.493 C 130.430 210.493,130.115 210.575,130.500 210.676 M117.505 212.283 C 118.002 212.379,118.722 212.375,119.105 212.275 C 119.487 212.175,119.080 212.096,118.200 212.101 C 117.320 212.105,117.007 212.187,117.505 212.283 M104.100 213.876 C 104.485 213.976,105.115 213.976,105.500 213.876 C 105.885 213.775,105.570 213.693,104.800 213.693 C 104.030 213.693,103.715 213.775,104.100 213.876 M100.705 214.283 C 101.202 214.379,101.922 214.375,102.305 214.275 C 102.687 214.175,102.280 214.096,101.400 214.101 C 100.520 214.105,100.207 214.187,100.705 214.283 M97.700 214.676 C 98.085 214.776,98.715 214.776,99.100 214.676 C 99.485 214.575,99.170 214.493,98.400 214.493 C 97.630 214.493,97.315 214.575,97.700 214.676 M90.000 215.280 C 90.000 215.456,90.630 215.600,91.400 215.600 C 92.170 215.600,92.800 215.530,92.800 215.444 C 92.800 215.358,92.170 215.214,91.400 215.124 C 90.630 215.034,90.000 215.104,90.000 215.280 M93.905 215.083 C 94.402 215.179,95.122 215.175,95.505 215.075 C 95.887 214.975,95.480 214.896,94.600 214.901 C 93.720 214.905,93.407 214.987,93.905 215.083 " stroke="none" fill="#aab8fa" fill-rule="evenodd"></path><path id="path4" d="M75.727 23.460 C 75.893 23.626,72.865 26.931,68.997 30.803 C 62.112 37.696,61.996 37.839,63.482 37.647 C 64.367 37.532,64.685 37.382,64.244 37.285 C 63.655 37.156,64.962 35.645,70.183 30.417 C 75.674 24.919,76.746 23.665,76.150 23.436 C 75.751 23.283,75.560 23.294,75.727 23.460 M43.665 35.417 C 42.995 36.888,43.123 37.202,43.847 35.865 C 44.186 35.240,44.388 34.654,44.296 34.563 C 44.205 34.471,43.921 34.856,43.665 35.417 M52.835 46.845 C 47.913 51.903,44.457 55.154,44.135 55.030 C 43.841 54.917,43.600 54.980,43.600 55.170 C 43.600 56.577,45.355 55.253,51.040 49.558 C 56.759 43.829,57.426 43.278,57.660 44.093 C 57.866 44.811,57.929 44.698,57.960 43.556 C 57.990 42.469,58.404 41.654,59.634 40.256 C 60.533 39.235,61.208 38.412,61.134 38.427 C 61.060 38.442,57.326 42.230,52.835 46.845 M70.400 38.525 C 70.400 38.594,70.985 39.179,71.700 39.825 L 73.000 41.000 71.825 39.700 C 70.730 38.488,70.400 38.216,70.400 38.525 M41.731 45.400 C 41.733 46.940,41.805 47.521,41.892 46.691 C 41.979 45.861,41.977 44.601,41.889 43.891 C 41.800 43.181,41.729 43.860,41.731 45.400 M71.375 51.300 L 70.200 52.600 71.500 51.425 C 72.215 50.779,72.800 50.194,72.800 50.125 C 72.800 49.816,72.470 50.088,71.375 51.300 M84.783 60.100 C 84.040 61.035,83.748 61.546,84.135 61.236 C 84.863 60.651,86.577 58.400,86.294 58.400 C 86.206 58.400,85.526 59.165,84.783 60.100 M48.600 62.400 C 49.459 63.280,50.252 64.000,50.362 64.000 C 50.472 64.000,49.859 63.280,49.000 62.400 C 48.141 61.520,47.348 60.800,47.238 60.800 C 47.128 60.800,47.741 61.520,48.600 62.400 M58.000 78.370 C 58.000 78.900,58.095 79.239,58.210 79.123 C 58.471 78.863,78.400 98.706,78.400 99.225 C 78.400 99.431,78.581 99.600,78.802 99.600 C 79.023 99.600,81.287 101.681,83.832 104.223 C 86.377 106.766,88.633 108.789,88.846 108.718 C 89.058 108.647,87.065 106.449,84.416 103.832 C 78.763 98.249,79.027 99.068,81.970 96.261 C 83.274 95.017,84.091 94.000,83.786 94.000 C 83.481 94.000,82.390 94.900,81.361 96.000 C 79.055 98.466,78.945 98.466,76.643 96.004 C 75.616 94.906,74.556 94.051,74.288 94.104 C 74.020 94.157,73.834 94.007,73.876 93.772 C 73.918 93.537,70.363 89.759,65.976 85.376 C 59.490 78.896,58.000 77.587,58.000 78.370 M90.310 86.223 C 90.187 86.346,90.180 86.800,90.293 87.232 C 90.487 87.975,90.527 87.979,91.014 87.314 C 91.686 86.395,91.079 85.454,90.310 86.223 M100.900 87.476 C 101.285 87.576,101.915 87.576,102.300 87.476 C 102.685 87.375,102.370 87.293,101.600 87.293 C 100.830 87.293,100.515 87.375,100.900 87.476 M103.700 87.876 C 104.085 87.976,104.715 87.976,105.100 87.876 C 105.485 87.775,105.170 87.693,104.400 87.693 C 103.630 87.693,103.315 87.775,103.700 87.876 M90.134 91.200 C 90.134 92.850,90.205 93.525,90.291 92.700 C 90.378 91.875,90.378 90.525,90.291 89.700 C 90.205 88.875,90.134 89.550,90.134 91.200 M114.100 89.076 C 114.485 89.176,115.115 89.176,115.500 89.076 C 115.885 88.975,115.570 88.893,114.800 88.893 C 114.030 88.893,113.715 88.975,114.100 89.076 M127.505 90.683 C 128.002 90.779,128.722 90.775,129.105 90.675 C 129.487 90.575,129.080 90.496,128.200 90.501 C 127.320 90.505,127.007 90.587,127.505 90.683 M130.900 91.076 C 131.285 91.176,131.915 91.176,132.300 91.076 C 132.685 90.975,132.370 90.893,131.600 90.893 C 130.830 90.893,130.515 90.975,130.900 91.076 M144.100 92.676 C 144.485 92.776,145.115 92.776,145.500 92.676 C 145.885 92.575,145.570 92.493,144.800 92.493 C 144.030 92.493,143.715 92.575,144.100 92.676 M147.300 93.076 C 147.685 93.176,148.315 93.176,148.700 93.076 C 149.085 92.975,148.770 92.893,148.000 92.893 C 147.230 92.893,146.915 92.975,147.300 93.076 M153.512 96.111 C 154.880 97.492,156.000 98.788,156.000 98.992 C 156.000 99.429,139.557 116.000,139.123 116.000 C 138.961 116.000,138.777 114.157,138.714 111.905 C 138.609 108.146,138.534 107.803,137.800 107.728 C 137.178 107.664,137.155 107.692,137.700 107.852 C 138.302 108.030,138.404 108.603,138.428 111.929 C 138.473 118.061,137.899 118.279,147.768 108.387 C 152.589 103.554,156.670 99.600,156.837 99.600 C 157.003 99.600,159.162 101.670,161.634 104.200 C 164.107 106.730,166.323 108.800,166.559 108.800 C 166.795 108.800,164.778 106.585,162.078 103.878 L 157.168 98.956 159.180 96.978 C 160.287 95.890,161.599 94.885,162.096 94.744 C 162.757 94.557,162.602 94.494,161.516 94.508 C 160.700 94.519,160.107 94.650,160.199 94.798 C 160.290 94.946,159.562 95.856,158.580 96.820 L 156.795 98.572 154.287 96.086 C 152.907 94.719,151.609 93.600,151.401 93.600 C 151.193 93.600,152.143 94.730,153.512 96.111 M176.705 96.683 C 177.202 96.779,177.922 96.775,178.305 96.675 C 178.687 96.575,178.280 96.496,177.400 96.501 C 176.520 96.505,176.207 96.587,176.705 96.683 M180.100 97.076 C 180.485 97.176,181.115 97.176,181.500 97.076 C 181.885 96.975,181.570 96.893,180.800 96.893 C 180.030 96.893,179.715 96.975,180.100 97.076 M186.900 97.876 C 187.285 97.976,187.915 97.976,188.300 97.876 C 188.685 97.775,188.370 97.693,187.600 97.693 C 186.830 97.693,186.515 97.775,186.900 97.876 M193.300 98.676 C 193.685 98.776,194.315 98.776,194.700 98.676 C 195.085 98.575,194.770 98.493,194.000 98.493 C 193.230 98.493,192.915 98.575,193.300 98.676 M200.500 99.476 C 200.885 99.576,201.515 99.576,201.900 99.476 C 202.285 99.375,201.970 99.293,201.200 99.293 C 200.430 99.293,200.115 99.375,200.500 99.476 M67.887 109.503 C 62.449 114.928,58.000 119.562,58.000 119.801 C 58.000 120.040,62.535 115.688,68.078 110.129 C 73.621 104.571,78.070 99.937,77.965 99.831 C 77.859 99.726,73.324 104.078,67.887 109.503 M203.905 99.883 C 204.402 99.979,205.122 99.975,205.505 99.875 C 205.887 99.775,205.480 99.696,204.600 99.701 C 203.720 99.705,203.407 99.787,203.905 99.883 M220.500 101.876 C 220.885 101.976,221.515 101.976,221.900 101.876 C 222.285 101.775,221.970 101.693,221.200 101.693 C 220.430 101.693,220.115 101.775,220.500 101.876 M222.867 110.004 C 217.362 115.631,216.077 117.144,216.625 117.354 C 217.004 117.500,217.409 117.525,217.524 117.409 C 217.639 117.294,217.480 117.200,217.171 117.200 C 216.862 117.200,219.712 114.093,223.504 110.296 C 229.815 103.978,230.958 102.689,230.100 102.860 C 229.935 102.892,226.680 106.108,222.867 110.004 M236.500 103.876 C 236.885 103.976,237.515 103.976,237.900 103.876 C 238.285 103.775,237.970 103.693,237.200 103.693 C 236.430 103.693,236.115 103.775,236.500 103.876 M106.267 104.267 C 106.120 104.413,105.999 109.228,105.997 114.967 L 105.994 125.400 99.014 118.394 C 95.175 114.541,92.076 111.661,92.127 111.994 C 92.179 112.327,95.206 115.570,98.855 119.200 C 102.504 122.830,105.698 126.160,105.954 126.600 C 106.252 127.111,106.399 127.183,106.363 126.800 C 106.331 126.470,106.327 121.305,106.353 115.323 L 106.400 104.446 108.100 104.293 L 109.800 104.140 108.167 104.070 C 107.268 104.031,106.413 104.120,106.267 104.267 M239.141 104.355 C 242.097 106.228,252.747 117.822,251.723 118.053 C 250.969 118.222,250.862 118.319,251.400 118.347 C 254.217 118.495,254.010 118.152,247.185 111.350 C 240.540 104.728,239.743 104.012,239.000 104.012 C 238.780 104.012,238.843 104.167,239.141 104.355 M110.500 104.676 C 110.885 104.776,111.515 104.776,111.900 104.676 C 112.285 104.575,111.970 104.493,111.200 104.493 C 110.430 104.493,110.115 104.575,110.500 104.676 M117.700 105.476 C 118.085 105.576,118.715 105.576,119.100 105.476 C 119.485 105.375,119.170 105.293,118.400 105.293 C 117.630 105.293,117.315 105.375,117.700 105.476 M249.700 105.476 C 250.085 105.576,250.715 105.576,251.100 105.476 C 251.485 105.375,251.170 105.293,250.400 105.293 C 249.630 105.293,249.315 105.375,249.700 105.476 M252.900 105.876 C 253.285 105.976,253.915 105.976,254.300 105.876 C 254.685 105.775,254.370 105.693,253.600 105.693 C 252.830 105.693,252.515 105.775,252.900 105.876 M131.300 107.076 C 131.685 107.176,132.315 107.176,132.700 107.076 C 133.085 106.975,132.770 106.893,132.000 106.893 C 131.230 106.893,130.915 106.975,131.300 107.076 M276.900 108.676 C 277.285 108.776,277.915 108.776,278.300 108.676 C 278.685 108.575,278.370 108.493,277.600 108.493 C 276.830 108.493,276.515 108.575,276.900 108.676 M72.267 109.067 C 72.120 109.213,72.000 122.713,72.000 139.067 C 72.000 155.420,71.858 168.800,71.685 168.800 C 71.511 168.800,68.361 165.773,64.685 162.073 C 60.427 157.789,58.000 155.611,58.000 156.073 C 58.000 156.473,58.146 156.800,58.325 156.800 C 58.690 156.800,71.427 169.462,72.006 170.400 C 72.235 170.771,72.383 159.277,72.393 140.254 C 72.402 123.344,72.508 109.349,72.628 109.154 C 72.885 108.739,72.651 108.682,72.267 109.067 M279.700 109.076 C 280.085 109.176,280.715 109.176,281.100 109.076 C 281.485 108.975,281.170 108.893,280.400 108.893 C 279.630 108.893,279.315 108.975,279.700 109.076 M293.300 110.676 C 293.685 110.776,294.315 110.776,294.700 110.676 C 295.085 110.575,294.770 110.493,294.000 110.493 C 293.230 110.493,292.915 110.575,293.300 110.676 M296.500 111.076 C 296.885 111.176,297.515 111.176,297.900 111.076 C 298.285 110.975,297.970 110.893,297.200 110.893 C 296.430 110.893,296.115 110.975,296.500 111.076 M291.900 118.549 C 287.995 122.521,284.800 125.988,284.800 126.254 C 284.800 126.520,288.187 123.377,292.328 119.269 C 298.898 112.750,300.418 110.999,299.276 111.264 C 299.124 111.300,295.805 114.578,291.900 118.549 M203.200 115.945 C 203.200 116.134,203.650 116.203,204.200 116.098 C 204.750 115.993,205.200 115.838,205.200 115.753 C 205.200 115.669,204.750 115.600,204.200 115.600 C 203.650 115.600,203.200 115.755,203.200 115.945 M206.900 116.276 C 207.285 116.376,207.915 116.376,208.300 116.276 C 208.685 116.175,208.370 116.093,207.600 116.093 C 206.830 116.093,206.515 116.175,206.900 116.276 M210.500 116.676 C 210.885 116.776,211.515 116.776,211.900 116.676 C 212.285 116.575,211.970 116.493,211.200 116.493 C 210.430 116.493,210.115 116.575,210.500 116.676 M138.586 137.800 C 138.586 149.020,138.637 153.668,138.700 148.128 C 138.762 142.588,138.762 133.408,138.700 127.728 C 138.637 122.048,138.586 126.580,138.586 137.800 M249.383 118.500 C 249.278 118.775,249.239 128.540,249.296 140.200 L 249.400 161.400 249.600 139.700 C 249.710 127.765,249.749 118.000,249.687 118.000 C 249.626 118.000,249.489 118.225,249.383 118.500 M226.500 118.676 C 226.885 118.776,227.515 118.776,227.900 118.676 C 228.285 118.575,227.970 118.493,227.200 118.493 C 226.430 118.493,226.115 118.575,226.500 118.676 M338.600 126.400 C 339.906 127.720,341.065 128.800,341.175 128.800 C 341.285 128.800,340.306 127.720,339.000 126.400 C 337.694 125.080,336.535 124.000,336.425 124.000 C 336.315 124.000,337.294 125.080,338.600 126.400 M300.667 127.467 C 300.520 127.613,300.400 135.893,300.400 145.867 C 300.400 155.840,300.265 163.995,300.100 163.990 C 299.935 163.984,296.425 160.594,292.300 156.458 C 287.507 151.651,284.800 149.201,284.800 149.668 C 284.800 150.071,284.952 150.400,285.139 150.400 C 285.325 150.400,288.835 153.758,292.939 157.861 C 297.042 161.965,300.440 165.250,300.488 165.161 C 300.568 165.015,301.045 127.199,300.967 127.200 C 300.948 127.200,300.813 127.320,300.667 127.467 M105.997 138.900 L 105.995 149.400 98.997 156.340 C 95.149 160.156,92.000 163.457,92.000 163.674 C 92.000 163.890,95.071 160.993,98.824 157.234 C 102.577 153.475,105.817 150.400,106.024 150.400 C 106.250 150.400,106.400 145.999,106.400 139.400 C 106.400 133.350,106.310 128.400,106.200 128.400 C 106.090 128.400,105.999 133.125,105.997 138.900 M199.311 133.600 L 195.621 137.400 192.211 134.009 C 190.335 132.144,188.800 130.798,188.800 131.019 C 188.800 131.239,190.150 132.761,191.800 134.400 C 193.450 136.039,194.800 137.569,194.800 137.800 C 194.800 138.031,193.450 139.561,191.800 141.200 C 190.150 142.839,188.800 144.361,188.800 144.581 C 188.800 144.802,190.336 143.456,192.212 141.591 L 195.624 138.200 199.412 142.040 C 202.619 145.291,203.200 145.732,203.200 144.917 C 203.200 144.386,203.052 144.044,202.871 144.156 C 202.690 144.268,201.066 142.875,199.261 141.062 L 195.981 137.764 199.607 134.215 C 201.601 132.264,203.181 130.472,203.117 130.233 C 203.052 129.995,201.340 131.510,199.311 133.600 M340.806 147.707 C 336.908 151.667,333.588 154.727,333.306 154.619 C 332.990 154.498,332.800 154.765,332.800 155.333 C 332.800 155.832,332.576 156.501,332.302 156.820 C 332.028 157.139,335.395 153.850,339.785 149.510 C 345.176 144.181,347.867 141.780,348.077 142.110 C 348.454 142.705,348.451 142.036,348.072 141.200 C 347.872 140.760,345.940 142.490,340.806 147.707 M331.281 142.991 C 331.759 143.976,332.219 144.714,332.303 144.630 C 332.484 144.449,330.868 141.200,330.597 141.200 C 330.494 141.200,330.802 142.006,331.281 142.991 M349.337 150.600 C 349.339 152.360,349.409 153.030,349.493 152.089 C 349.578 151.149,349.577 149.709,349.491 148.889 C 349.405 148.070,349.336 148.840,349.337 150.600 M333.314 150.600 C 333.317 151.700,333.395 152.103,333.487 151.495 C 333.579 150.886,333.577 149.986,333.482 149.495 C 333.387 149.003,333.311 149.500,333.314 150.600 M106.097 174.251 C 106.006 195.224,106.046 196.738,106.700 197.251 C 107.319 197.737,107.343 197.727,106.903 197.163 C 106.524 196.677,106.381 191.228,106.300 174.163 L 106.193 151.800 106.097 174.251 M138.713 158.404 C 138.457 158.976,138.247 193.495,138.500 193.338 C 138.665 193.236,138.800 185.603,138.800 176.376 C 138.800 167.149,138.937 159.600,139.105 159.600 C 139.272 159.600,142.275 162.470,145.778 165.978 C 151.622 171.830,152.800 172.759,152.800 171.510 C 152.800 171.266,152.673 171.193,152.519 171.348 C 152.364 171.502,149.214 168.609,145.519 164.919 C 141.823 161.228,138.761 158.297,138.713 158.404 M242.474 168.126 C 238.913 171.692,236.000 174.806,236.000 175.046 C 236.000 175.287,238.919 172.554,242.488 168.973 C 246.056 165.391,249.116 162.548,249.288 162.654 C 249.459 162.760,249.600 162.667,249.600 162.447 C 249.600 161.244,248.357 162.235,242.474 168.126 M327.781 163.300 L 326.200 165.000 327.900 163.419 C 328.835 162.549,329.600 161.784,329.600 161.719 C 329.600 161.416,329.252 161.719,327.781 163.300 M249.365 171.000 C 249.366 174.960,249.426 176.526,249.498 174.480 C 249.571 172.434,249.571 169.194,249.498 167.280 C 249.424 165.366,249.365 167.040,249.365 171.000 M300.576 169.568 C 300.595 172.919,300.718 173.767,301.200 173.898 C 301.628 174.014,301.661 173.962,301.316 173.716 C 301.009 173.499,300.780 171.904,300.692 169.386 L 300.552 165.400 300.576 169.568 M319.819 169.169 C 319.694 169.372,319.051 169.657,318.392 169.802 C 317.733 169.947,317.300 170.239,317.432 170.452 C 317.713 170.906,312.858 176.000,312.145 176.000 C 311.126 176.000,309.116 173.047,309.898 172.698 C 310.388 172.478,310.298 172.445,309.600 172.586 C 309.050 172.698,308.150 172.809,307.600 172.834 C 306.656 172.877,306.649 172.894,307.468 173.140 C 308.365 173.409,311.603 176.214,311.596 176.716 C 311.593 176.872,308.718 179.870,305.206 183.377 C 301.695 186.885,298.898 189.832,298.993 189.926 C 299.087 190.020,302.049 187.195,305.576 183.649 C 309.103 180.102,312.076 177.200,312.182 177.200 C 312.853 177.200,320.717 185.805,320.292 186.075 C 320.017 186.250,319.986 186.390,320.220 186.394 C 320.451 186.397,320.811 186.237,321.020 186.039 C 321.229 185.840,321.760 185.591,322.200 185.485 C 322.907 185.315,322.893 185.287,322.077 185.246 C 321.179 185.201,312.437 177.051,312.827 176.623 C 312.922 176.519,314.701 174.716,316.779 172.617 C 318.858 170.517,320.443 168.800,320.303 168.800 C 320.162 168.800,319.945 168.966,319.819 169.169 M72.000 177.612 L 72.000 183.224 65.345 189.912 C 61.685 193.590,58.535 196.555,58.345 196.500 C 58.155 196.445,58.000 196.763,58.000 197.206 C 58.000 197.780,59.966 196.043,64.794 191.206 C 68.530 187.463,71.746 184.400,71.939 184.400 C 72.133 184.400,72.326 181.610,72.369 178.200 C 72.411 174.790,72.345 172.000,72.223 172.000 C 72.100 172.000,72.000 174.525,72.000 177.612 M338.587 174.900 L 336.200 177.400 338.700 175.013 C 340.075 173.699,341.200 172.574,341.200 172.513 C 341.200 172.217,340.805 172.578,338.587 174.900 M236.000 178.207 C 236.000 178.427,239.690 182.294,244.200 186.800 C 253.081 195.673,253.012 195.585,251.100 195.632 C 250.385 195.649,249.989 195.742,250.221 195.838 C 250.452 195.935,251.892 195.853,253.421 195.657 C 255.048 195.449,255.621 195.280,254.803 195.251 C 253.541 195.205,252.571 194.365,244.703 186.503 C 239.917 181.720,236.000 177.987,236.000 178.207 M274.400 178.400 L 264.200 178.621 274.500 178.710 C 281.160 178.768,284.800 178.659,284.800 178.400 C 284.800 178.180,284.755 178.040,284.700 178.090 C 284.645 178.139,280.010 178.279,274.400 178.400 M257.700 179.076 C 258.085 179.176,258.715 179.176,259.100 179.076 C 259.485 178.975,259.170 178.893,258.400 178.893 C 257.630 178.893,257.315 178.975,257.700 179.076 M136.789 196.201 C 121.911 211.068,121.427 211.599,122.789 211.572 C 123.741 211.553,123.972 211.454,123.499 211.266 C 122.856 211.012,151.077 182.109,152.401 181.667 C 152.864 181.512,152.945 180.799,152.500 180.801 C 152.335 180.802,145.265 187.732,136.789 196.201 M224.100 183.076 C 224.485 183.176,225.115 183.176,225.500 183.076 C 225.885 182.975,225.570 182.893,224.800 182.893 C 224.030 182.893,223.715 182.975,224.100 183.076 M208.100 185.076 C 208.485 185.176,209.115 185.176,209.500 185.076 C 209.885 184.975,209.570 184.893,208.800 184.893 C 208.030 184.893,207.715 184.975,208.100 185.076 M72.137 188.600 C 72.139 190.360,72.209 191.030,72.293 190.089 C 72.378 189.149,72.377 187.709,72.291 186.889 C 72.205 186.070,72.136 186.840,72.137 188.600 M92.100 189.739 C 92.100 190.323,92.248 190.800,92.430 190.800 C 92.611 190.800,97.584 195.615,103.480 201.500 L 114.200 212.200 112.600 212.443 C 111.320 212.638,111.240 212.692,112.200 212.714 C 113.891 212.752,117.385 212.117,115.851 212.050 C 114.734 212.001,93.658 191.587,92.508 189.439 C 92.142 188.757,92.100 188.787,92.100 189.739 M306.900 189.076 C 307.285 189.176,307.915 189.176,308.300 189.076 C 308.685 188.975,308.370 188.893,307.600 188.893 C 306.830 188.893,306.515 188.975,306.900 189.076 M293.300 190.676 C 293.685 190.776,294.315 190.776,294.700 190.676 C 295.085 190.575,294.770 190.493,294.000 190.493 C 293.230 190.493,292.915 190.575,293.300 190.676 M164.056 192.459 C 163.317 192.672,162.787 192.920,162.879 193.012 C 162.970 193.103,163.752 192.983,164.616 192.745 C 165.480 192.506,167.090 192.406,168.194 192.523 C 169.475 192.659,169.911 192.613,169.400 192.396 C 168.342 191.947,165.730 191.977,164.056 192.459 M277.300 192.676 C 277.685 192.776,278.315 192.776,278.700 192.676 C 279.085 192.575,278.770 192.493,278.000 192.493 C 277.230 192.493,276.915 192.575,277.300 192.676 M171.701 193.900 C 175.166 196.566,175.512 199.778,172.887 204.900 C 172.803 205.065,172.958 205.200,173.233 205.200 C 173.508 205.200,173.619 205.086,173.480 204.946 C 173.340 204.807,173.571 204.254,173.993 203.718 C 176.342 200.732,173.963 192.800,170.719 192.800 C 170.473 192.800,170.914 193.295,171.701 193.900 M160.193 194.253 C 155.906 197.087,147.444 208.000,149.533 208.000 C 149.723 208.000,150.221 207.237,150.639 206.303 C 152.764 201.565,156.033 197.720,160.515 194.687 C 162.469 193.364,162.651 193.200,162.160 193.200 C 161.954 193.200,161.069 193.674,160.193 194.253 M165.981 193.978 C 162.571 195.013,153.965 204.498,155.260 205.794 C 155.353 205.886,156.212 204.631,157.170 203.006 C 161.709 195.306,168.089 191.942,170.167 196.153 C 170.581 196.993,170.785 197.161,170.791 196.669 C 170.803 195.711,168.665 193.590,167.731 193.634 C 167.329 193.653,166.542 193.808,165.981 193.978 M132.100 194.276 C 132.485 194.376,133.115 194.376,133.500 194.276 C 133.885 194.175,133.570 194.093,132.800 194.093 C 132.030 194.093,131.715 194.175,132.100 194.276 M260.900 194.676 C 261.285 194.776,261.915 194.776,262.300 194.676 C 262.685 194.575,262.370 194.493,261.600 194.493 C 260.830 194.493,260.515 194.575,260.900 194.676 M257.700 195.076 C 258.085 195.176,258.715 195.176,259.100 195.076 C 259.485 194.975,259.170 194.893,258.400 194.893 C 257.630 194.893,257.315 194.975,257.700 195.076 M115.300 196.276 C 115.685 196.376,116.315 196.376,116.700 196.276 C 117.085 196.175,116.770 196.093,116.000 196.093 C 115.230 196.093,114.915 196.175,115.300 196.276 M237.300 197.476 C 237.685 197.576,238.315 197.576,238.700 197.476 C 239.085 197.375,238.770 197.293,238.000 197.293 C 237.230 197.293,236.915 197.375,237.300 197.476 M170.860 199.274 C 170.782 201.726,170.233 203.101,168.675 204.750 C 167.714 205.768,167.614 205.990,168.269 205.653 C 170.312 204.600,171.533 201.543,171.094 198.576 C 170.971 197.745,170.902 197.949,170.860 199.274 M233.700 197.876 C 234.085 197.976,234.715 197.976,235.100 197.876 C 235.485 197.775,235.170 197.693,234.400 197.693 C 233.630 197.693,233.315 197.775,233.700 197.876 M217.700 199.876 C 218.085 199.976,218.715 199.976,219.100 199.876 C 219.485 199.775,219.170 199.693,218.400 199.693 C 217.630 199.693,217.315 199.775,217.700 199.876 M201.700 201.876 C 202.085 201.976,202.715 201.976,203.100 201.876 C 203.485 201.775,203.170 201.693,202.400 201.693 C 201.630 201.693,201.315 201.775,201.700 201.876 M188.100 203.476 C 188.485 203.576,189.115 203.576,189.500 203.476 C 189.885 203.375,189.570 203.293,188.800 203.293 C 188.030 203.293,187.715 203.375,188.100 203.476 M184.705 203.883 C 185.202 203.979,185.922 203.975,186.305 203.875 C 186.687 203.775,186.280 203.696,185.400 203.701 C 184.520 203.705,184.207 203.787,184.705 203.883 M177.700 204.676 C 178.085 204.776,178.715 204.776,179.100 204.676 C 179.485 204.575,179.170 204.493,178.400 204.493 C 177.630 204.493,177.315 204.575,177.700 204.676 M160.900 206.676 C 161.285 206.776,161.915 206.776,162.300 206.676 C 162.685 206.575,162.370 206.493,161.600 206.493 C 160.830 206.493,160.515 206.575,160.900 206.676 M90.064 210.876 C 90.029 213.008,90.135 214.837,90.300 214.940 C 90.465 215.042,90.551 213.838,90.491 212.263 C 90.304 207.390,90.131 206.826,90.064 210.876 M108.900 213.076 C 109.285 213.176,109.915 213.176,110.300 213.076 C 110.685 212.975,110.370 212.893,109.600 212.893 C 108.830 212.893,108.515 212.975,108.900 213.076 M105.300 213.476 C 105.685 213.576,106.315 213.576,106.700 213.476 C 107.085 213.375,106.770 213.293,106.000 213.293 C 105.230 213.293,104.915 213.375,105.300 213.476 M101.700 213.876 C 102.085 213.976,102.715 213.976,103.100 213.876 C 103.485 213.775,103.170 213.693,102.400 213.693 C 101.630 213.693,101.315 213.775,101.700 213.876 M58.000 233.756 C 58.000 234.183,58.088 234.445,58.196 234.337 C 58.304 234.229,61.859 237.621,66.095 241.875 C 70.331 246.128,73.844 249.468,73.901 249.296 C 73.959 249.124,70.404 245.382,66.003 240.981 C 60.553 235.531,58.000 233.226,58.000 233.756 M65.900 266.961 C 61.555 271.340,58.000 275.103,58.000 275.323 C 58.000 275.543,61.618 272.103,66.039 267.679 C 70.461 263.255,74.016 259.493,73.939 259.318 C 73.863 259.143,70.245 262.583,65.900 266.961 M58.060 311.204 C 58.128 311.877,73.470 327.064,73.774 326.759 C 73.882 326.651,70.377 322.973,65.985 318.585 C 61.593 314.197,58.027 310.876,58.060 311.204 M66.231 344.281 C 62.068 348.505,58.513 351.870,58.331 351.757 C 58.149 351.645,58.000 351.967,58.000 352.473 C 58.000 353.200,59.651 351.760,65.885 345.596 C 70.222 341.308,73.838 337.769,73.921 337.731 C 74.003 337.694,74.010 337.424,73.935 337.131 C 73.861 336.839,70.399 340.051,66.231 344.281 M58.000 388.615 C 58.000 388.839,61.600 392.622,66.000 397.022 C 70.400 401.422,74.000 404.836,74.000 404.607 C 74.000 404.379,70.400 400.596,66.000 396.200 C 61.600 391.804,58.000 388.391,58.000 388.615 " stroke="none" fill="#94acfc" fill-rule="evenodd"></path></g></svg>