<svg id="svg" version="1.1" width="400" height="364.42307692307696" viewBox="0 0 400 364.42307692307696" xmlns="http://www.w3.org/2000/svg" xmlns:xlink="http://www.w3.org/1999/xlink" ><g id="svgg"><path id="path0" d="M267.274 47.239 C 266.974 47.303,265.035 47.624,262.967 47.952 C 255.340 49.162,247.215 52.348,240.788 56.648 C 236.317 59.640,235.916 59.957,235.916 60.499 C 235.916 60.740,235.732 60.822,235.506 60.683 C 234.992 60.365,227.234 68.245,224.977 71.376 C 217.489 81.766,213.318 93.959,213.311 105.481 C 213.307 112.933,218.301 116.952,223.889 113.993 C 226.925 112.385,227.550 111.007,228.094 104.718 C 229.231 91.563,234.814 80.224,243.748 72.926 C 244.852 72.024,245.757 71.108,245.759 70.890 C 245.760 70.673,245.979 70.495,246.245 70.495 C 246.511 70.495,247.455 70.002,248.342 69.398 C 259.454 61.839,274.508 59.799,287.876 64.042 C 289.830 64.662,297.601 68.192,297.903 68.598 C 298.004 68.732,299.152 69.625,300.456 70.582 C 314.597 80.962,321.528 98.473,318.343 115.770 C 317.448 120.634,317.453 120.460,318.202 120.172 C 318.571 120.031,318.432 120.318,317.850 120.900 C 317.321 121.429,316.557 122.748,316.152 123.831 C 315.106 126.626,313.356 130.004,311.657 132.509 C 310.357 134.425,310.249 134.747,310.672 135.426 C 311.092 136.102,311.082 136.136,310.583 135.723 C 310.099 135.324,309.448 135.828,306.057 139.226 C 300.930 144.363,295.631 147.890,289.791 150.051 C 288.838 150.403,287.643 151.107,287.135 151.616 C 286.554 152.197,286.297 152.314,286.444 151.931 C 286.573 151.596,286.619 151.322,286.548 151.322 C 286.476 151.322,285.252 151.566,283.827 151.863 C 277.860 153.108,275.904 153.152,227.329 153.148 L 178.703 153.143 178.465 154.511 C 178.090 156.674,176.769 158.374,174.573 159.524 C 172.000 160.871,170.911 160.618,172.171 158.966 C 174.319 156.148,174.658 155.519,174.658 154.358 L 174.658 153.126 169.140 153.227 L 163.622 153.327 161.710 156.497 C 159.733 159.776,157.261 166.528,157.659 167.564 C 157.847 168.056,159.190 168.113,168.392 168.019 L 178.910 167.912 180.242 166.896 C 183.912 164.095,189.402 164.135,190.869 166.972 C 191.681 168.542,196.171 168.579,196.171 167.015 C 196.171 165.970,197.432 165.114,198.781 165.243 C 199.902 165.351,200.000 165.460,200.000 166.605 C 200.000 168.313,200.397 168.318,202.860 166.645 C 206.402 164.240,208.735 164.253,208.768 166.678 C 208.793 168.520,213.291 168.782,213.864 166.975 C 214.136 166.120,216.073 164.817,217.074 164.814 C 217.633 164.813,217.722 165.064,217.628 166.363 C 217.446 168.891,219.142 168.663,219.715 166.082 C 221.062 160.015,227.435 159.642,227.106 165.650 L 226.983 167.912 228.624 167.880 C 229.876 167.855,230.718 167.537,232.183 166.534 C 235.779 164.073,242.115 164.503,242.115 167.208 C 242.115 168.065,243.505 168.141,257.794 168.071 C 282.531 167.949,288.335 167.159,298.409 162.541 C 308.298 158.008,321.302 147.423,319.847 145.093 C 319.607 144.708,319.562 144.394,319.748 144.394 C 319.933 144.394,320.154 144.599,320.238 144.850 C 320.947 146.954,328.406 134.197,330.846 126.709 C 333.220 119.424,335.206 104.226,333.659 105.182 C 333.299 105.405,333.288 105.302,333.606 104.707 C 335.128 101.863,330.453 84.043,326.981 79.456 C 326.208 78.435,325.782 77.726,326.034 77.882 C 327.254 78.636,322.492 71.534,319.161 67.632 C 316.812 64.881,310.473 59.105,308.929 58.310 C 308.380 58.027,307.849 57.692,307.748 57.567 C 306.973 56.595,303.061 54.624,303.582 55.468 C 303.721 55.692,302.943 55.150,301.853 54.262 C 296.117 49.590,275.694 45.442,267.274 47.239 M307.384 58.888 C 307.384 59.189,307.138 59.435,306.837 59.435 C 306.536 59.435,306.290 59.189,306.290 58.888 C 306.290 58.587,306.536 58.341,306.837 58.341 C 307.138 58.341,307.384 58.587,307.384 58.888 M305.149 60.802 C 304.303 61.881,301.550 64.528,301.550 64.262 C 301.550 64.012,305.257 60.188,305.514 60.172 C 305.589 60.168,305.425 60.451,305.149 60.802 M20.569 153.664 C 13.867 156.582,15.042 166.404,22.251 167.726 C 24.394 168.119,152.177 168.091,152.570 167.697 C 152.689 167.578,153.120 166.207,153.528 164.649 C 154.302 161.693,156.147 157.688,157.933 155.085 C 158.508 154.246,158.979 153.470,158.979 153.358 C 158.979 153.247,138.417 153.154,113.285 153.152 L 67.590 153.148 66.544 154.240 C 65.968 154.841,65.323 155.328,65.110 155.322 C 64.896 155.316,65.007 155.144,65.356 154.941 C 68.306 153.223,67.741 153.145,52.316 153.145 C 40.872 153.145,37.932 153.239,38.136 153.601 C 38.342 153.965,38.295 153.965,37.902 153.601 C 37.181 152.931,22.127 152.986,20.569 153.664 M58.342 162.442 C 57.872 162.942,57.410 163.274,57.315 163.180 C 57.158 163.022,58.689 161.571,59.043 161.544 C 59.128 161.537,58.813 161.941,58.342 162.442 M222.040 164.122 C 221.486 165.157,221.924 167.267,222.790 167.730 C 224.160 168.463,224.709 165.335,223.472 163.845 C 222.901 163.158,222.516 163.232,222.040 164.122 M183.842 167.021 C 182.557 167.536,183.248 168.095,185.163 168.089 C 187.332 168.082,188.205 167.616,187.129 167.040 C 186.234 166.561,185.006 166.554,183.842 167.021 M234.902 167.124 C 233.738 167.770,234.260 168.095,236.463 168.095 C 238.550 168.095,239.028 167.858,238.421 167.126 C 237.913 166.514,236.003 166.513,234.902 167.124 M22.060 183.750 C 15.081 185.449,14.066 195.473,20.652 197.647 L 21.967 198.081 29.033 191.022 C 32.919 187.140,36.098 183.839,36.098 183.686 C 36.098 183.335,23.529 183.393,22.060 183.750 M30.380 190.428 C 26.508 194.289,23.339 197.612,23.338 197.812 C 23.337 198.052,33.302 198.177,52.507 198.177 C 68.551 198.177,81.636 198.051,81.584 197.898 C 81.533 197.745,78.312 194.422,74.426 190.514 L 67.361 183.409 52.390 183.409 L 37.420 183.409 30.380 190.428 M68.917 183.865 C 68.917 184.116,72.001 187.397,75.768 191.158 L 82.619 197.995 88.693 197.995 L 94.767 197.995 101.713 191.057 C 105.534 187.241,108.660 183.959,108.660 183.764 C 108.660 183.538,101.426 183.409,88.788 183.409 C 73.132 183.409,68.916 183.506,68.917 183.865 M103.026 190.544 C 99.105 194.468,95.898 197.791,95.898 197.928 C 95.898 198.065,109.025 198.177,125.068 198.177 C 144.662 198.177,154.239 198.055,154.239 197.805 C 154.239 197.600,151.052 194.277,147.157 190.421 L 140.075 183.409 125.114 183.409 L 110.153 183.409 103.026 190.544 M141.535 183.766 C 141.610 183.992,144.779 187.285,148.577 191.085 L 155.482 197.995 197.800 197.995 L 240.117 197.995 247.033 191.090 C 250.837 187.292,254.009 184.007,254.082 183.789 C 254.189 183.468,197.914 183.454,163.902 183.766 C 162.698 183.777,157.143 183.689,151.556 183.571 C 144.116 183.414,141.435 183.466,141.535 183.766 M248.443 190.408 C 244.562 194.257,241.386 197.580,241.386 197.792 C 241.386 198.059,250.325 198.177,270.556 198.177 C 286.600 198.177,299.727 198.087,299.727 197.976 C 299.727 197.866,296.508 194.544,292.574 190.593 L 285.421 183.409 270.461 183.409 L 255.501 183.409 248.443 190.408 M286.964 183.791 C 286.964 184.001,290.060 187.283,293.843 191.084 L 300.722 197.995 306.854 197.995 L 312.985 197.995 319.836 191.158 C 323.605 187.397,326.692 184.116,326.698 183.865 C 326.707 183.506,322.497 183.409,306.837 183.409 C 293.237 183.409,286.964 183.530,286.964 183.791 M321.149 190.539 C 317.188 194.504,313.947 197.845,313.948 197.963 C 313.948 198.080,319.321 198.179,325.889 198.181 C 337.997 198.186,338.971 198.270,343.665 199.707 C 352.255 202.339,360.807 210.851,363.355 219.305 C 363.595 220.102,374.476 209.623,374.476 208.595 C 374.476 206.849,369.155 199.599,364.990 195.670 C 356.730 187.878,347.117 184.129,333.959 183.569 L 328.350 183.330 321.149 190.539 M369.219 215.102 L 363.789 220.541 364.301 222.850 C 366.230 231.551,363.122 242.506,356.781 249.356 C 354.265 252.073,353.993 251.347,359.639 256.974 C 365.241 262.556,364.737 262.358,367.047 259.891 C 379.152 246.964,382.693 229.112,376.448 212.493 C 375.101 208.909,375.571 208.739,369.219 215.102 M20.602 214.365 C 15.718 216.626,14.549 222.332,18.198 226.098 C 20.816 228.801,12.143 228.606,130.364 228.618 C 249.997 228.631,240.377 228.418,245.944 231.176 C 253.139 234.741,257.442 241.128,258.465 249.762 C 258.666 251.461,258.739 252.999,258.628 253.180 C 258.516 253.361,258.215 254.712,257.960 256.182 C 256.326 265.592,244.826 275.427,236.463 274.566 C 236.263 274.545,235.032 274.468,233.728 274.394 C 231.368 274.261,230.974 274.157,227.165 272.669 C 221.189 270.333,216.137 265.086,214.223 259.227 C 213.867 258.138,213.427 256.957,213.244 256.602 C 213.061 256.248,212.872 254.525,212.824 252.774 C 212.665 247.036,210.198 244.294,205.208 244.308 C 203.024 244.315,202.127 244.702,202.576 245.447 C 202.822 245.856,202.773 245.861,202.299 245.477 C 200.707 244.188,198.015 248.507,198.003 252.368 C 197.966 263.326,204.031 275.027,213.264 281.810 C 216.819 284.422,223.146 287.602,223.883 287.147 C 224.049 287.044,224.241 287.116,224.308 287.308 C 225.033 289.368,244.857 289.737,244.373 287.681 C 244.285 287.305,244.373 287.298,244.794 287.648 C 247.165 289.616,260.098 281.465,265.549 274.567 C 271.836 266.612,275.348 251.408,272.624 243.938 C 272.294 243.036,272.023 241.938,272.020 241.498 C 272.017 241.059,271.851 240.598,271.650 240.474 C 271.449 240.350,271.285 239.932,271.285 239.545 C 271.285 235.367,263.187 224.484,257.065 220.433 C 253.126 217.827,246.818 214.983,245.440 215.192 C 245.115 215.241,244.485 215.080,244.039 214.835 C 242.187 213.814,236.556 213.681,195.076 213.680 L 152.497 213.679 151.303 214.861 L 150.108 216.044 150.921 214.860 L 151.734 213.677 88.608 213.676 C 38.255 213.675,25.534 213.767,25.739 214.130 C 25.944 214.493,25.896 214.493,25.505 214.129 C 24.790 213.466,22.284 213.586,20.602 214.365 M252.694 222.698 C 253.168 223.149,253.443 223.519,253.306 223.519 C 252.929 223.519,250.137 220.927,250.137 220.577 C 250.137 220.409,250.518 220.633,250.984 221.075 C 251.451 221.516,252.220 222.247,252.694 222.698 M293.073 222.266 C 288.634 224.576,287.916 231.393,291.013 241.817 C 294.374 253.131,304.140 264.992,313.157 268.710 L 314.372 269.211 319.791 263.800 C 325.590 258.011,325.555 258.071,323.547 257.409 C 312.634 253.807,303.790 241.366,303.732 229.535 C 303.702 223.369,298.183 219.606,293.073 222.266 M143.810 222.151 C 143.388 222.885,141.686 224.591,141.365 224.602 C 141.101 224.612,143.690 221.717,143.960 221.702 C 144.022 221.698,143.954 221.901,143.810 222.151 M260.346 230.447 C 261.354 231.449,262.045 232.270,261.881 232.270 C 261.717 232.270,260.796 231.449,259.835 230.447 C 258.874 229.444,258.184 228.624,258.301 228.624 C 258.418 228.624,259.338 229.444,260.346 230.447 M270.616 240.292 C 270.783 240.292,270.921 240.538,270.921 240.839 C 270.921 241.139,270.665 241.386,270.352 241.386 C 270.040 241.386,269.879 241.231,269.996 241.043 C 270.112 240.855,269.531 240.075,268.705 239.311 C 267.879 238.547,267.038 237.613,266.835 237.235 C 266.633 236.858,267.332 237.391,268.389 238.420 C 269.446 239.450,270.448 240.292,270.616 240.292 M352.416 253.265 C 346.811 257.952,336.925 260.292,328.686 258.883 L 325.945 258.414 320.499 263.847 C 314.528 269.803,314.609 269.688,316.044 270.208 C 316.595 270.408,317.375 270.726,317.776 270.916 C 330.557 276.954,351.577 273.667,362.808 263.874 C 364.494 262.403,364.745 262.862,359.188 257.260 C 353.833 251.862,353.986 251.952,352.416 253.265 " stroke="none" fill="#5880ef" fill-rule="evenodd"></path><path id="path1" d="M0.000 182.315 L 0.000 364.631 200.000 364.631 L 400.000 364.631 400.000 182.315 L 400.000 0.000 200.000 0.000 L 0.000 0.000 0.000 182.315 M285.871 47.763 C 291.138 48.872,297.453 51.026,300.023 52.589 C 300.688 52.994,302.083 53.732,303.123 54.231 C 304.163 54.729,305.793 55.694,306.747 56.374 C 307.700 57.055,308.574 57.612,308.689 57.612 C 311.018 57.612,323.299 71.326,326.587 77.598 C 329.396 82.955,329.964 84.221,331.223 87.927 C 339.448 112.143,331.425 139.155,311.275 155.092 C 302.900 161.716,293.669 165.820,283.136 167.602 C 277.210 168.605,21.935 168.606,20.096 167.604 C 14.188 164.383,14.432 155.882,20.504 153.345 C 21.714 152.839,34.934 152.780,147.573 152.774 C 220.456 152.771,274.987 152.628,277.327 152.434 C 308.991 149.814,328.187 115.928,314.128 87.470 C 306.720 72.473,293.638 63.866,275.661 62.159 C 252.227 59.935,230.339 79.885,228.442 105.196 C 227.841 113.225,223.515 117.060,217.769 114.659 C 213.651 112.938,212.472 110.046,212.969 102.886 C 215.493 66.568,250.275 40.268,285.871 47.763 M340.930 183.579 C 375.996 188.925,391.801 229.844,369.524 257.612 C 344.125 289.271,292.655 273.460,288.804 232.815 C 288.052 224.881,291.635 220.051,297.461 221.144 C 302.207 222.034,303.663 224.307,304.466 232.081 C 306.855 255.178,333.783 266.883,352.233 252.844 C 372.194 237.657,366.543 207.240,342.369 199.748 L 339.654 198.906 180.464 198.724 L 21.274 198.541 19.487 197.437 C 13.972 194.027,14.865 185.607,20.966 183.487 C 22.876 182.823,336.565 182.914,340.930 183.579 M239.365 213.709 C 266.795 216.433,282.214 245.677,268.989 269.897 C 254.983 295.550,217.528 296.130,202.944 270.921 C 194.379 256.116,196.628 241.756,207.161 243.987 C 210.940 244.788,212.828 247.574,213.350 253.121 C 215.179 272.559,237.518 280.972,251.418 267.457 C 263.776 255.440,258.181 234.396,241.390 229.743 L 238.666 228.988 130.727 228.986 C 53.808 228.985,22.370 228.870,21.331 228.586 C 14.159 226.627,13.839 216.415,20.874 213.998 C 23.193 213.202,231.479 212.926,239.365 213.709 " stroke="none" fill="#fff" fill-rule="evenodd"></path><path id="path2" d="M270.847 46.944 C 272.511 47.012,275.136 47.012,276.681 46.943 C 278.226 46.875,276.864 46.820,273.655 46.820 C 270.447 46.821,269.183 46.877,270.847 46.944 M263.628 47.280 C 257.858 48.188,244.303 52.970,244.303 54.097 C 244.303 54.198,245.820 53.571,247.675 52.705 C 252.169 50.607,258.356 48.684,262.967 47.952 C 265.035 47.624,266.974 47.303,267.274 47.239 C 268.061 47.071,264.717 47.109,263.628 47.280 M282.771 47.631 C 287.185 48.318,291.842 49.590,296.350 51.340 C 298.403 52.137,300.007 52.666,299.914 52.515 C 299.727 52.212,295.272 50.427,291.887 49.298 C 288.905 48.304,282.575 47.028,280.878 47.079 C 280.003 47.105,280.704 47.309,282.771 47.631 M300.456 52.995 C 300.456 53.043,301.225 53.724,302.164 54.510 C 303.104 55.295,303.751 55.740,303.601 55.499 C 303.064 54.629,306.951 56.568,307.748 57.567 C 307.849 57.692,308.372 58.023,308.912 58.301 C 313.194 60.506,325.548 74.377,325.795 77.257 C 325.855 77.960,328.223 81.379,328.475 81.127 C 328.571 81.031,328.409 80.664,328.116 80.312 C 327.822 79.960,327.040 78.605,326.378 77.302 C 323.401 71.438,310.980 57.612,308.689 57.612 C 308.574 57.612,307.700 57.057,306.747 56.380 C 305.264 55.326,300.456 52.739,300.456 52.995 M240.937 56.062 C 224.967 66.000,214.290 83.875,212.969 102.886 C 212.544 109.002,213.023 110.929,215.557 113.292 C 217.296 114.913,221.296 115.812,222.729 114.904 C 223.014 114.723,222.464 114.667,221.404 114.769 C 216.279 115.262,213.307 111.852,213.311 105.481 C 213.318 93.959,217.489 81.766,224.977 71.376 C 227.234 68.245,234.992 60.365,235.506 60.683 C 235.732 60.822,235.919 60.722,235.922 60.459 C 235.928 60.004,239.654 57.199,242.571 55.453 C 243.753 54.746,244.219 54.330,243.829 54.330 C 243.769 54.330,242.468 55.109,240.937 56.062 M306.290 58.888 C 306.290 59.189,306.536 59.435,306.837 59.435 C 307.138 59.435,307.384 59.189,307.384 58.888 C 307.384 58.587,307.138 58.341,306.837 58.341 C 306.536 58.341,306.290 58.587,306.290 58.888 M303.464 62.096 C 302.411 63.149,301.550 64.124,301.550 64.262 C 301.550 64.528,304.303 61.881,305.149 60.802 C 306.046 59.659,305.417 60.142,303.464 62.096 M265.514 62.428 C 262.339 63.005,263.535 63.069,267.828 62.550 C 271.025 62.164,271.391 62.067,269.644 62.070 C 268.441 62.072,266.582 62.233,265.514 62.428 M277.666 62.346 C 278.870 62.489,280.757 62.704,281.860 62.823 L 283.865 63.040 281.495 62.531 C 280.191 62.251,278.304 62.036,277.302 62.054 L 275.479 62.087 277.666 62.346 M258.341 64.374 C 255.029 65.542,251.986 67.040,249.041 68.951 C 247.738 69.796,246.468 70.489,246.217 70.491 C 245.966 70.493,245.760 70.673,245.759 70.890 C 245.757 71.108,244.852 72.024,243.748 72.926 C 240.648 75.458,235.787 81.309,234.129 84.503 C 233.437 85.835,233.963 85.440,234.858 83.956 C 240.087 75.281,248.716 68.303,258.705 64.675 C 260.510 64.019,261.741 63.480,261.440 63.478 C 261.139 63.475,259.745 63.878,258.341 64.374 M285.506 63.596 C 285.506 63.679,286.613 64.097,287.967 64.525 C 294.560 66.608,300.584 70.448,306.270 76.192 C 308.165 78.106,309.207 79.015,308.588 78.213 C 306.992 76.147,303.235 72.622,300.456 70.582 C 299.152 69.625,298.004 68.734,297.903 68.602 C 297.134 67.592,285.506 62.897,285.506 63.596 M311.052 82.074 C 313.956 86.351,315.817 90.676,317.939 98.086 C 318.284 99.292,318.292 99.272,318.085 97.721 C 317.550 93.711,314.362 86.147,311.516 82.133 C 309.438 79.204,309.071 79.158,311.052 82.074 M328.548 81.699 C 328.540 81.812,328.952 82.960,329.466 84.252 C 332.417 91.675,334.657 102.743,333.606 104.707 C 333.288 105.302,333.299 105.405,333.659 105.182 C 335.206 104.226,333.220 119.424,330.846 126.709 C 328.406 134.197,320.947 146.954,320.238 144.850 C 320.154 144.599,319.933 144.394,319.748 144.394 C 319.562 144.394,319.601 144.700,319.835 145.073 C 320.403 145.983,319.289 147.424,314.515 151.958 C 312.498 153.873,311.742 154.719,312.834 153.837 C 331.526 138.750,339.162 111.334,331.208 87.876 C 330.074 84.532,328.596 81.099,328.548 81.699 M232.817 86.782 C 232.486 87.421,232.298 88.026,232.398 88.126 C 232.499 88.226,232.851 87.786,233.181 87.147 C 233.512 86.508,233.700 85.903,233.600 85.803 C 233.500 85.703,233.147 86.143,232.817 86.782 M231.219 90.408 C 229.399 94.640,227.837 102.822,227.944 107.566 C 227.964 108.469,228.201 107.092,228.469 104.506 C 229.089 98.540,229.509 96.533,231.027 92.274 C 232.364 88.522,232.469 87.503,231.219 90.408 M318.801 107.384 C 318.798 111.420,318.856 112.137,319.020 110.119 C 319.142 108.614,319.144 106.153,319.024 104.649 C 318.863 102.633,318.804 103.352,318.801 107.384 M227.408 110.187 C 227.158 111.185,225.363 113.239,224.063 114.017 C 223.663 114.256,223.536 114.461,223.779 114.473 C 224.962 114.530,228.148 110.697,227.796 109.641 C 227.717 109.405,227.543 109.651,227.408 110.187 M317.428 118.402 C 313.769 133.921,301.237 146.642,285.141 151.174 C 283.437 151.654,282.698 151.965,283.500 151.867 C 284.303 151.768,285.356 151.578,285.841 151.446 C 286.589 151.241,286.684 151.306,286.467 151.872 C 286.276 152.368,286.449 152.302,287.135 151.616 C 287.643 151.107,288.838 150.403,289.791 150.051 C 295.631 147.890,300.930 144.363,306.057 139.226 C 309.448 135.828,310.099 135.324,310.583 135.723 C 311.082 136.136,311.092 136.102,310.672 135.426 C 310.249 134.747,310.357 134.425,311.657 132.509 C 313.356 130.004,315.106 126.626,316.152 123.831 C 316.557 122.748,317.321 121.429,317.850 120.900 C 318.432 120.318,318.571 120.031,318.202 120.172 C 317.484 120.448,317.465 120.232,317.994 117.769 C 318.634 114.781,318.155 115.318,317.428 118.402 M277.119 152.436 C 275.415 152.586,217.283 152.724,147.937 152.744 C 35.014 152.777,21.713 152.839,20.504 153.345 C 19.015 153.967,17.642 155.121,17.053 156.244 C 16.843 156.645,17.296 156.339,18.058 155.563 C 20.312 153.270,20.909 153.145,29.633 153.145 C 35.350 153.145,37.541 153.266,37.902 153.601 C 38.295 153.965,38.342 153.965,38.136 153.601 C 37.932 153.239,40.872 153.145,52.316 153.145 C 67.741 153.145,68.306 153.223,65.356 154.941 C 65.007 155.144,64.896 155.316,65.110 155.322 C 65.323 155.328,65.968 154.841,66.544 154.240 L 67.590 153.148 113.285 153.152 C 138.417 153.154,158.979 153.247,158.979 153.358 C 158.979 153.470,158.508 154.246,157.933 155.085 C 156.147 157.688,154.302 161.693,153.528 164.649 C 153.120 166.207,152.689 167.578,152.570 167.697 C 152.182 168.086,24.397 168.120,22.280 167.731 C 20.094 167.330,18.173 166.062,17.108 164.315 C 16.725 163.687,16.410 163.328,16.410 163.517 C 16.407 164.332,18.363 166.577,19.786 167.392 L 21.331 168.277 150.410 168.248 C 269.756 168.221,279.764 168.173,283.136 167.604 C 287.392 166.886,293.265 165.215,296.310 163.857 C 297.487 163.332,299.171 162.590,300.052 162.208 C 300.932 161.826,301.574 161.434,301.476 161.337 C 301.379 161.240,299.914 161.810,298.219 162.604 C 288.588 167.117,282.432 167.950,257.794 168.071 C 243.505 168.141,242.115 168.065,242.115 167.208 C 242.115 164.503,235.779 164.073,232.183 166.534 C 230.718 167.537,229.876 167.855,228.624 167.880 L 226.983 167.912 227.106 165.650 C 227.435 159.642,221.062 160.015,219.715 166.082 C 219.142 168.663,217.446 168.891,217.628 166.363 C 217.722 165.064,217.633 164.813,217.074 164.814 C 216.073 164.817,214.136 166.120,213.864 166.975 C 213.291 168.782,208.793 168.520,208.768 166.678 C 208.735 164.253,206.402 164.240,202.860 166.645 C 200.397 168.318,200.000 168.313,200.000 166.605 C 200.000 165.460,199.902 165.351,198.781 165.243 C 197.432 165.114,196.171 165.970,196.171 167.015 C 196.171 168.579,191.681 168.542,190.869 166.972 C 189.402 164.135,183.912 164.095,180.242 166.896 L 178.910 167.912 168.392 168.019 C 159.190 168.113,157.847 168.056,157.659 167.564 C 157.261 166.528,159.733 159.776,161.710 156.497 L 163.622 153.327 169.140 153.227 L 174.658 153.126 174.658 154.358 C 174.658 155.519,174.319 156.148,172.171 158.966 C 170.911 160.618,172.000 160.871,174.573 159.524 C 176.769 158.374,178.090 156.674,178.465 154.511 L 178.703 153.143 227.311 153.148 C 272.377 153.152,281.023 153.002,281.829 152.202 C 282.003 152.029,281.423 152.058,277.119 152.436 M308.830 156.564 C 307.921 157.232,305.992 158.485,304.543 159.349 C 303.095 160.212,301.970 160.979,302.043 161.052 C 302.399 161.409,310.665 156.058,310.665 155.471 C 310.665 155.236,310.531 155.315,308.830 156.564 M15.900 158.462 C 15.594 159.261,15.633 161.988,15.958 162.498 C 16.106 162.728,16.227 161.785,16.228 160.401 C 16.230 157.655,16.224 157.619,15.900 158.462 M58.016 162.282 C 57.536 162.681,57.221 163.085,57.315 163.180 C 57.410 163.274,57.872 162.942,58.342 162.442 C 59.365 161.352,59.218 161.281,58.016 162.282 M223.472 163.845 C 224.709 165.335,224.160 168.463,222.790 167.730 C 221.924 167.267,221.486 165.157,222.040 164.122 C 222.516 163.232,222.901 163.158,223.472 163.845 M187.129 167.040 C 188.205 167.616,187.332 168.082,185.163 168.089 C 183.248 168.095,182.557 167.536,183.842 167.021 C 185.006 166.554,186.234 166.561,187.129 167.040 M238.421 167.126 C 239.028 167.858,238.550 168.095,236.463 168.095 C 234.260 168.095,233.738 167.770,234.902 167.124 C 236.003 166.513,237.913 166.514,238.421 167.126 M20.966 183.487 C 17.421 184.719,14.400 190.315,15.958 192.764 C 16.106 192.995,16.226 192.148,16.226 190.881 C 16.226 188.069,17.509 185.941,20.071 184.503 C 21.744 183.564,36.098 182.803,36.098 183.653 C 36.098 183.824,32.919 187.140,29.033 191.022 L 21.967 198.081 20.706 197.664 C 19.460 197.253,18.183 196.110,17.011 194.358 C 16.137 193.050,16.270 193.856,17.169 195.311 C 17.588 195.988,18.695 196.992,19.631 197.542 L 21.331 198.541 180.492 198.724 L 339.654 198.906 342.369 199.748 C 349.331 201.905,355.142 206.074,359.001 211.677 C 359.758 212.775,360.446 213.604,360.531 213.520 C 360.838 213.212,357.723 209.072,355.822 207.260 C 350.758 202.436,346.903 200.364,339.836 198.668 C 338.388 198.320,334.512 198.185,325.889 198.181 C 319.321 198.179,313.948 198.080,313.948 197.963 C 313.947 197.845,317.188 194.504,321.149 190.539 L 328.350 183.330 333.959 183.569 C 347.117 184.129,356.730 187.878,364.990 195.670 C 369.155 199.599,374.476 206.849,374.476 208.595 C 374.476 209.633,363.596 220.100,363.343 219.305 C 362.913 217.948,361.186 214.345,360.874 214.152 C 360.701 214.045,360.821 214.464,361.141 215.082 C 364.307 221.204,365.194 230.798,363.181 237.144 C 361.997 240.878,361.990 240.911,362.561 239.927 C 364.548 236.506,365.424 227.913,364.301 222.850 L 363.789 220.541 369.219 215.102 C 372.206 212.110,374.815 209.664,375.018 209.667 C 375.433 209.671,377.169 214.084,378.172 217.685 C 378.700 219.579,378.790 219.733,378.619 218.450 C 376.467 202.342,359.198 186.364,340.930 183.579 C 336.565 182.914,22.876 182.823,20.966 183.487 M74.426 190.514 C 78.312 194.422,81.533 197.745,81.584 197.898 C 81.636 198.051,68.551 198.177,52.507 198.177 C 33.302 198.177,23.337 198.052,23.338 197.812 C 23.339 197.612,26.508 194.289,30.380 190.428 L 37.420 183.409 52.390 183.409 L 67.361 183.409 74.426 190.514 M108.660 183.764 C 108.660 183.959,105.534 187.241,101.713 191.057 L 94.767 197.995 88.693 197.995 L 82.619 197.995 75.768 191.158 C 72.001 187.397,68.917 184.116,68.917 183.865 C 68.916 183.506,73.132 183.409,88.788 183.409 C 101.426 183.409,108.660 183.538,108.660 183.764 M147.157 190.421 C 151.052 194.277,154.239 197.600,154.239 197.805 C 154.239 198.055,144.662 198.177,125.068 198.177 C 109.025 198.177,95.898 198.065,95.898 197.928 C 95.898 197.791,99.105 194.468,103.026 190.544 L 110.153 183.409 125.114 183.409 L 140.075 183.409 147.157 190.421 M163.902 183.766 C 197.914 183.454,254.189 183.468,254.082 183.789 C 254.009 184.007,250.837 187.292,247.033 191.090 L 240.117 197.995 197.800 197.995 L 155.482 197.995 148.577 191.085 C 144.779 187.285,141.610 183.992,141.535 183.766 C 141.435 183.466,144.116 183.414,151.556 183.571 C 157.143 183.689,162.698 183.777,163.902 183.766 M292.574 190.593 C 296.508 194.544,299.727 197.866,299.727 197.976 C 299.727 198.087,286.600 198.177,270.556 198.177 C 250.325 198.177,241.386 198.059,241.386 197.792 C 241.386 197.580,244.562 194.257,248.443 190.408 L 255.501 183.409 270.461 183.409 L 285.421 183.409 292.574 190.593 M326.698 183.865 C 326.692 184.116,323.605 187.397,319.836 191.158 L 312.985 197.995 306.854 197.995 L 300.722 197.995 293.843 191.084 C 290.060 187.283,286.964 184.001,286.964 183.791 C 286.964 183.530,293.237 183.409,306.837 183.409 C 322.497 183.409,326.707 183.506,326.698 183.865 M23.063 213.560 C 23.414 213.652,23.988 213.652,24.339 213.560 C 24.690 213.469,24.403 213.394,23.701 213.394 C 22.999 213.394,22.712 213.469,23.063 213.560 M39.107 213.582 C 46.477 213.638,58.537 213.638,65.907 213.582 C 73.277 213.527,67.247 213.482,52.507 213.482 C 37.767 213.482,31.737 213.527,39.107 213.582 M84.342 213.582 C 86.911 213.644,91.013 213.644,93.458 213.581 C 95.903 213.518,93.801 213.467,88.788 213.467 C 83.774 213.467,81.773 213.519,84.342 213.582 M98.325 213.581 C 98.232 213.732,110.212 213.813,124.949 213.760 L 151.743 213.664 150.925 214.854 L 150.108 216.044 151.299 214.865 L 152.490 213.686 161.477 213.585 C 166.421 213.530,154.272 213.445,134.480 213.396 C 114.688 213.347,98.418 213.430,98.325 213.581 M170.886 213.582 C 170.793 213.733,182.910 213.856,197.812 213.856 C 212.715 213.856,224.832 213.733,224.739 213.582 C 224.646 213.432,212.529 213.309,197.812 213.309 C 183.096 213.309,170.979 213.432,170.886 213.582 M228.168 213.580 C 229.822 213.648,232.530 213.648,234.184 213.580 C 235.839 213.513,234.485 213.457,231.176 213.457 C 227.867 213.457,226.513 213.513,228.168 213.580 M239.289 213.925 C 239.640 214.017,240.214 214.017,240.565 213.925 C 240.916 213.833,240.629 213.758,239.927 213.758 C 239.225 213.758,238.938 213.833,239.289 213.925 M18.924 214.859 C 16.559 216.426,15.023 220.941,16.040 223.336 C 16.237 223.799,16.278 223.383,16.152 222.202 C 15.825 219.119,17.202 216.337,19.857 214.718 C 20.467 214.345,20.785 214.040,20.564 214.040 C 20.343 214.039,19.605 214.408,18.924 214.859 M243.100 214.442 C 243.742 214.627,244.357 214.925,244.467 215.104 C 244.578 215.282,244.964 215.351,245.325 215.256 C 246.640 214.913,252.880 217.664,257.065 220.433 C 263.187 224.484,271.285 235.367,271.285 239.545 C 271.285 239.932,271.449 240.350,271.650 240.474 C 271.851 240.598,272.017 241.059,272.020 241.498 C 272.023 241.938,272.294 243.036,272.624 243.938 C 274.430 248.891,273.054 260.658,269.876 267.441 C 268.183 271.052,268.182 271.626,269.874 268.277 C 280.417 247.406,268.993 221.510,246.358 214.972 C 244.581 214.458,242.858 214.053,242.530 214.071 C 242.201 214.089,242.458 214.256,243.100 214.442 M250.137 220.577 C 250.137 220.927,252.929 223.519,253.306 223.519 C 253.443 223.519,253.168 223.149,252.694 222.698 C 252.220 222.247,251.451 221.516,250.984 221.075 C 250.518 220.633,250.137 220.409,250.137 220.577 M379.146 222.607 C 379.465 225.834,379.470 231.688,379.158 235.005 L 378.917 237.557 379.454 235.005 C 380.055 232.147,379.936 223.077,379.271 221.149 C 378.980 220.304,378.952 220.635,379.146 222.607 M295.807 221.218 C 296.158 221.309,296.732 221.309,297.083 221.218 C 297.434 221.126,297.147 221.051,296.445 221.051 C 295.743 221.051,295.456 221.126,295.807 221.218 M292.981 221.837 C 288.686 223.712,287.540 229.676,289.697 238.940 C 292.692 251.808,301.506 263.211,313.077 269.187 C 316.353 270.879,321.888 272.946,322.229 272.605 C 322.330 272.505,321.453 272.144,320.281 271.803 C 319.108 271.462,317.901 271.042,317.598 270.870 C 317.295 270.697,316.595 270.396,316.044 270.201 C 314.607 269.691,314.530 269.801,320.499 263.847 L 325.945 258.414 328.686 258.883 C 336.894 260.287,346.337 258.083,352.286 253.376 C 353.017 252.798,353.767 252.325,353.953 252.325 C 354.358 252.325,364.084 262.072,364.084 262.478 C 364.084 263.941,354.613 269.553,348.222 271.877 C 346.804 272.393,346.365 272.650,347.129 272.517 C 355.707 271.024,367.638 261.807,373.503 252.142 C 374.930 249.791,377.571 243.630,377.278 243.336 C 377.180 243.239,376.747 244.113,376.317 245.280 C 374.546 250.082,371.002 255.667,367.047 259.891 C 364.737 262.358,365.241 262.556,359.639 256.974 C 353.977 251.332,354.254 252.107,356.882 249.232 C 358.959 246.961,362.349 241.535,361.944 241.130 C 361.829 241.014,361.578 241.329,361.388 241.830 C 360.232 244.872,355.965 250.005,352.233 252.844 C 333.783 266.883,306.855 255.178,304.466 232.081 C 303.718 224.844,301.636 221.280,298.191 221.339 C 297.933 221.343,298.377 221.651,299.180 222.022 C 302.132 223.389,303.736 226.059,303.740 229.615 C 303.756 241.311,312.668 253.818,323.547 257.409 C 325.555 258.071,325.590 258.011,319.791 263.800 L 314.372 269.211 313.157 268.710 C 304.140 264.992,294.374 253.131,291.013 241.817 C 287.916 231.393,288.634 224.576,293.073 222.266 C 294.900 221.315,294.838 221.026,292.981 221.837 M142.459 223.160 C 141.696 223.959,141.203 224.608,141.365 224.602 C 141.686 224.591,143.388 222.885,143.810 222.151 C 144.249 221.389,143.911 221.641,142.459 223.160 M16.936 225.305 C 17.669 226.721,19.494 228.084,21.331 228.586 C 22.818 228.992,238.807 229.205,238.402 228.800 C 238.298 228.696,189.746 228.610,130.509 228.609 C 11.796 228.607,20.830 228.815,18.122 226.019 C 16.693 224.544,16.475 224.413,16.936 225.305 M259.835 230.447 C 260.796 231.449,261.717 232.270,261.881 232.270 C 262.045 232.270,261.354 231.449,260.346 230.447 C 259.338 229.444,258.418 228.624,258.301 228.624 C 258.184 228.624,258.874 229.444,259.835 230.447 M241.383 229.716 C 242.685 230.088,243.808 230.333,243.880 230.262 C 244.062 230.080,240.286 228.982,239.587 229.014 C 239.273 229.028,240.081 229.344,241.383 229.716 M246.308 231.641 C 251.333 234.341,255.868 240.124,257.381 245.763 C 257.784 247.266,258.122 248.086,258.132 247.584 C 258.236 242.091,248.839 230.327,244.450 230.456 C 244.269 230.462,245.105 230.995,246.308 231.641 M266.835 237.235 C 267.038 237.613,267.879 238.547,268.705 239.311 C 269.531 240.075,270.112 240.855,269.996 241.043 C 269.879 241.231,270.040 241.386,270.352 241.386 C 270.665 241.386,270.921 241.139,270.921 240.839 C 270.921 240.538,270.783 240.292,270.616 240.292 C 270.448 240.292,269.446 239.450,268.389 238.420 C 267.332 237.391,266.633 236.858,266.835 237.235 M378.193 239.473 C 377.963 240.425,377.675 241.613,377.552 242.115 C 377.379 242.822,377.416 242.904,377.716 242.479 C 378.147 241.869,379.001 238.132,378.763 237.894 C 378.680 237.811,378.423 238.521,378.193 239.473 M203.757 243.920 C 198.587 244.922,196.320 251.445,198.327 259.546 C 199.052 262.474,199.180 261.582,198.552 257.979 C 197.437 251.584,198.009 248.135,200.536 246.009 C 201.532 245.171,201.815 245.085,202.299 245.477 C 202.773 245.861,202.822 245.856,202.576 245.447 C 202.127 244.702,203.024 244.315,205.208 244.308 C 210.198 244.294,212.665 247.036,212.824 252.774 C 212.872 254.525,213.061 256.248,213.244 256.602 C 213.427 256.957,213.867 258.138,214.223 259.227 C 215.990 264.635,220.924 270.037,226.162 272.296 C 227.926 273.056,227.238 272.461,224.935 271.234 C 218.336 267.716,214.100 261.094,213.350 253.121 C 212.697 246.179,209.236 242.859,203.757 243.920 M258.218 251.231 C 258.195 252.942,258.300 253.761,258.498 253.418 C 258.673 253.118,258.689 251.887,258.535 250.684 L 258.254 248.496 258.218 251.231 M257.103 258.197 C 255.570 263.381,251.381 268.505,246.433 271.249 C 244.961 272.066,243.897 272.736,244.069 272.739 C 248.062 272.800,258.848 260.410,257.728 257.049 C 257.645 256.799,257.363 257.316,257.103 258.197 M199.088 262.095 C 199.088 262.661,200.588 266.626,200.743 266.470 C 200.885 266.328,199.545 262.140,199.269 261.864 C 199.170 261.764,199.088 261.869,199.088 262.095 M200.912 267.140 C 200.912 267.826,204.812 274.004,206.598 276.147 C 211.949 282.568,221.530 288.082,228.806 288.929 C 230.079 289.077,229.693 288.918,227.530 288.402 C 225.825 287.995,224.375 287.504,224.308 287.311 C 224.241 287.118,224.049 287.044,223.883 287.147 C 223.549 287.353,219.892 285.863,217.320 284.472 C 211.358 281.248,205.268 274.934,202.167 268.760 C 201.316 267.065,200.912 266.543,200.912 267.140 M267.592 271.741 C 264.639 277.284,257.282 283.279,249.043 286.856 C 247.899 287.353,247.508 287.629,248.131 287.499 C 251.258 286.847,257.228 283.282,261.544 279.490 C 264.177 277.176,269.042 270.921,268.208 270.921 C 268.110 270.921,267.833 271.290,267.592 271.741 M228.624 273.192 C 229.125 273.411,229.945 273.771,230.447 273.992 C 230.948 274.213,231.933 274.291,232.634 274.164 L 233.911 273.934 232.589 273.886 C 231.862 273.859,230.570 273.592,229.717 273.291 C 227.937 272.663,227.276 272.603,228.624 273.192 M240.292 273.514 C 237.693 274.158,237.655 274.182,239.521 273.996 C 240.601 273.888,241.995 273.575,242.620 273.301 C 244.112 272.647,243.603 272.693,240.292 273.514 M324.060 273.302 C 326.342 274.021,333.751 274.662,336.710 274.398 C 340.884 274.024,344.718 273.426,345.305 273.056 C 345.692 272.813,345.532 272.768,344.758 272.904 C 339.997 273.738,337.987 273.927,334.002 273.916 C 331.479 273.909,328.060 273.647,326.345 273.330 C 322.657 272.649,321.957 272.640,324.060 273.302 M235.187 274.342 C 235.187 274.674,236.608 274.815,237.061 274.528 C 237.398 274.314,237.178 274.212,236.372 274.208 C 235.720 274.205,235.187 274.265,235.187 274.342 M244.373 287.688 C 244.445 287.997,243.828 288.338,242.662 288.636 L 240.839 289.101 242.662 288.891 C 243.665 288.776,245.059 288.456,245.761 288.180 C 246.483 287.897,246.649 287.755,246.145 287.853 C 245.654 287.949,245.029 287.843,244.757 287.617 C 244.380 287.304,244.288 287.321,244.373 287.688 M233.651 289.423 C 234.913 289.494,236.882 289.493,238.027 289.421 C 239.172 289.349,238.140 289.291,235.734 289.291 C 233.327 289.292,232.390 289.351,233.651 289.423 " stroke="none" fill="#afc2f7" fill-rule="evenodd"></path></g></svg>